<svg width="554" height="477" viewBox="0 0 554 477" fill="none" xmlns="http://www.w3.org/2000/svg">
<path d="M162.797 337.953C104.404 372.464 103.826 414.639 110.836 431.412C125.919 405.894 169.276 404.805 189.069 407.45C211.414 409.447 242.824 407.776 256.078 406.204C298.672 401.271 313.89 358.663 322.46 339.55C330.678 321.221 364.429 305.69 381.091 300.27C409.365 293.519 448.708 290.721 469.4 278.863C483.272 271.4 519.238 238.514 537.351 220.066L418.951 0.000183471C402.558 45.3665 342.55 62.8593 315.776 71.947C229.427 104.095 218.874 192.244 224.392 232.3C234.523 285.634 187.55 324.958 162.797 337.953Z" fill="url(#paint0_linear_523_519)"/>
<defs>
<linearGradient id="paint0_linear_523_519" x1="344.518" y1="363.701" x2="209.475" y2="112.702" gradientUnits="userSpaceOnUse">
<stop stop-color="#EFC2AF"/>
<stop offset="0.293" stop-color="#E59BB2"/>
<stop offset="1" stop-color="#7E569D"/>
</linearGradient>
</defs>
</svg>
