<svg width="141" height="277" viewBox="0 0 141 277" fill="none" xmlns="http://www.w3.org/2000/svg">
<path d="M28.7599 81.2806L77.8626 271.415C78.8372 273.765 81.6747 276.075 83.9452 271.375L124.344 78.838L28.7599 81.2806Z" fill="#75A74B"/>
<line x1="34.1099" y1="100.476" x2="103.834" y2="177.447" stroke="#DFDB29"/>
<line x1="41.3801" y1="131.005" x2="100.004" y2="195.061" stroke="#DFDB29"/>
<line x1="49.482" y1="162.681" x2="96.0174" y2="213.666" stroke="#DFDB29"/>
<line x1="58.5758" y1="194.52" x2="92.0357" y2="232.275" stroke="#DFDB29"/>
<path d="M21.8615 52.8033C23.8712 70.7706 36.7745 72.6108 42.9749 71.285H44.3506L46.5038 64.7057C44.0874 49.5136 31.541 47.2109 25.5698 47.9586L27.0651 53.4313L21.8615 52.8033Z" fill="#ED5E86" stroke="#ED5E86" stroke-width="0.418679" stroke-linejoin="round"/>
<path d="M60.974 42.3511C67.885 59.0574 57.4719 66.8964 51.4015 68.7276L50.1967 69.3915L45.1356 64.6683C39.9201 50.1963 49.7974 42.1245 55.388 39.8976L56.7196 45.4124L60.974 42.3511Z" fill="#ED5E86" stroke="#ED5E86" stroke-width="0.418679" stroke-linejoin="round"/>
<path d="M56.7713 99.68C66.8448 82.8065 57.366 73.1826 51.3674 70.4798L50.2286 69.6243L44.1484 74.0065C36.2245 88.7197 45.1058 98.5239 50.5369 101.587L52.8742 95.8981L56.7713 99.68Z" fill="#ED5E86" stroke="#ED5E86" stroke-width="0.418679" stroke-linejoin="round"/>
<path d="M77.6431 70.6095C63.3672 57.1044 51.9105 64.2608 47.9667 69.5272L46.8839 70.4524L49.8374 77.3407C62.4727 88.2775 73.9752 81.7436 78.147 77.1095L73.1035 73.5899L77.6431 70.6095Z" fill="#ED5E86" stroke="#ED5E86" stroke-width="0.418679" stroke-linejoin="round"/>
<path d="M21.1943 89.9124C40.5532 93.2925 46.1553 81.0008 46.5365 74.4325L46.9287 73.0633L40.6634 68.9501C24.0903 66.8059 18.1063 78.6038 17.1859 84.7708L23.3342 84.9214L21.1943 89.9124Z" fill="#ED5E86" stroke="#ED5E86" stroke-width="0.418679" stroke-linejoin="round"/>
<path d="M24.5498 54.5428C26.3327 70.4835 37.7806 72.1161 43.2816 70.9398H44.5021L46.4124 65.1027C44.2686 51.6243 33.1374 49.5813 27.8398 50.2446L29.1664 55.1L24.5498 54.5428Z" fill="#FFA4BE" stroke="#FFA4BE" stroke-width="0.371453" stroke-linejoin="round"/>
<path d="M59.2504 45.2695C65.3819 60.0914 56.1434 67.0461 50.7577 68.6707L49.6887 69.2597L45.1986 65.0693C40.5714 52.2298 49.3345 45.0684 54.2945 43.0927L55.4759 47.9855L59.2504 45.2695Z" fill="#FFA4BE" stroke="#FFA4BE" stroke-width="0.371453" stroke-linejoin="round"/>
<path d="M55.5218 96.1319C64.459 81.1617 56.0493 72.6233 50.7274 70.2254L49.7171 69.4665L44.3227 73.3543C37.2926 86.4079 45.1721 95.1062 49.9906 97.8237L52.0643 92.7766L55.5218 96.1319Z" fill="#FFA4BE" stroke="#FFA4BE" stroke-width="0.371453" stroke-linejoin="round"/>
<path d="M74.0393 70.3405C61.3736 58.3587 51.2093 64.7079 47.7104 69.3802L46.7497 70.201L49.37 76.3124C60.5801 86.0156 70.7851 80.2186 74.4864 76.1073L70.0117 72.9847L74.0393 70.3405Z" fill="#FFA4BE" stroke="#FFA4BE" stroke-width="0.371453" stroke-linejoin="round"/>
<path d="M23.9578 87.4661C41.133 90.4648 46.1033 79.5597 46.4415 73.7323L46.7894 72.5175L41.2308 68.8682C26.5271 66.9659 21.2181 77.4331 20.4015 82.9044L25.8563 83.038L23.9578 87.4661Z" fill="#FFA4BE" stroke="#FFA4BE" stroke-width="0.371453" stroke-linejoin="round"/>
<circle cx="47.4608" cy="70.7168" r="5.20359" fill="#FFC6D6"/>
<path d="M80.8615 49.8033C82.8712 67.7706 95.7745 69.6108 101.975 68.285H103.351L105.504 61.7057C103.087 46.5136 90.541 44.2109 84.5698 44.9586L86.0651 50.4313L80.8615 49.8033Z" fill="#ED5E86" stroke="#ED5E86" stroke-width="0.418679" stroke-linejoin="round"/>
<path d="M119.974 39.3511C126.885 56.0574 116.472 63.8964 110.402 65.7276L109.197 66.3915L104.136 61.6683C98.9201 47.1963 108.797 39.1245 114.388 36.8976L115.72 42.4124L119.974 39.3511Z" fill="#ED5E86" stroke="#ED5E86" stroke-width="0.418679" stroke-linejoin="round"/>
<path d="M115.771 96.68C125.845 79.8065 116.366 70.1826 110.367 67.4798L109.229 66.6243L103.148 71.0065C95.2245 85.7197 104.106 95.5239 109.537 98.5869L111.874 92.8981L115.771 96.68Z" fill="#ED5E86" stroke="#ED5E86" stroke-width="0.418679" stroke-linejoin="round"/>
<path d="M136.643 67.6095C122.367 54.1044 110.911 61.2608 106.967 66.5272L105.884 67.4524L108.837 74.3407C121.473 85.2775 132.975 78.7436 137.147 74.1095L132.104 70.5899L136.643 67.6095Z" fill="#ED5E86" stroke="#ED5E86" stroke-width="0.418679" stroke-linejoin="round"/>
<path d="M80.1943 86.9124C99.5532 90.2925 105.155 78.0008 105.537 71.4325L105.929 70.0633L99.6634 65.9501C83.0903 63.8059 77.1063 75.6038 76.1859 81.7708L82.3342 81.9214L80.1943 86.9124Z" fill="#ED5E86" stroke="#ED5E86" stroke-width="0.418679" stroke-linejoin="round"/>
<path d="M83.5498 51.5428C85.3327 67.4835 96.7806 69.1161 102.282 67.9398H103.502L105.412 62.1027C103.269 48.6243 92.1374 46.5813 86.8398 47.2446L88.1664 52.1L83.5498 51.5428Z" fill="#FFA4BE" stroke="#FFA4BE" stroke-width="0.371453" stroke-linejoin="round"/>
<path d="M118.25 42.2695C124.382 57.0914 115.143 64.0461 109.758 65.6707L108.689 66.2597L104.199 62.0693C99.5714 49.2298 108.335 42.0684 113.295 40.0927L114.476 44.9855L118.25 42.2695Z" fill="#FFA4BE" stroke="#FFA4BE" stroke-width="0.371453" stroke-linejoin="round"/>
<path d="M114.522 93.1319C123.459 78.1617 115.049 69.6233 109.727 67.2254L108.717 66.4665L103.323 70.3543C96.2927 83.4079 104.172 92.1062 108.991 94.8237L111.064 89.7766L114.522 93.1319Z" fill="#FFA4BE" stroke="#FFA4BE" stroke-width="0.371453" stroke-linejoin="round"/>
<path d="M133.039 67.3405C120.374 55.3587 110.209 61.7079 106.71 66.3802L105.75 67.201L108.37 73.3124C119.58 83.0156 129.785 77.2186 133.486 73.1073L129.012 69.9847L133.039 67.3405Z" fill="#FFA4BE" stroke="#FFA4BE" stroke-width="0.371453" stroke-linejoin="round"/>
<path d="M82.9578 84.4661C100.133 87.4648 105.103 76.5597 105.441 70.7323L105.789 69.5175L100.231 65.8682C85.5271 63.9659 80.2181 74.4331 79.4015 79.9044L84.8563 80.038L82.9578 84.4661Z" fill="#FFA4BE" stroke="#FFA4BE" stroke-width="0.371453" stroke-linejoin="round"/>
<circle cx="106.461" cy="67.7168" r="5.20359" fill="#FFC6D6"/>
<path d="M28.8616 15.8033C30.8712 33.7706 43.7745 35.6108 49.975 34.285H51.3506L53.5038 27.7057C51.0875 12.5136 38.541 10.2109 32.5699 10.9586L34.0652 16.4313L28.8616 15.8033Z" fill="#ED5E86" stroke="#ED5E86" stroke-width="0.418679" stroke-linejoin="round"/>
<path d="M67.974 5.35111C74.885 22.0574 64.4719 29.8964 58.4015 31.7276L57.1967 32.3915L52.1356 27.6683C46.9201 13.1963 56.7974 5.12451 62.388 2.89758L63.7196 8.41244L67.974 5.35111Z" fill="#ED5E86" stroke="#ED5E86" stroke-width="0.418679" stroke-linejoin="round"/>
<path d="M63.7714 62.68C73.8448 45.8065 64.366 36.1826 58.3674 33.4798L57.2287 32.6243L51.1485 37.0065C43.2246 51.7197 52.1059 61.5239 57.537 64.5869L59.8743 58.8981L63.7714 62.68Z" fill="#ED5E86" stroke="#ED5E86" stroke-width="0.418679" stroke-linejoin="round"/>
<path d="M84.6432 33.6095C70.3673 20.1044 58.9107 27.2608 54.9668 32.5272L53.884 33.4524L56.8375 40.3407C69.4728 51.2775 80.9753 44.7436 85.1471 40.1095L80.1036 36.5899L84.6432 33.6095Z" fill="#ED5E86" stroke="#ED5E86" stroke-width="0.418679" stroke-linejoin="round"/>
<path d="M28.1943 52.9124C47.5532 56.2925 53.1553 44.0008 53.5365 37.4325L53.9287 36.0633L47.6634 31.9501C31.0903 29.8059 25.1063 41.6038 24.1859 47.7708L30.3342 47.9214L28.1943 52.9124Z" fill="#ED5E86" stroke="#ED5E86" stroke-width="0.418679" stroke-linejoin="round"/>
<path d="M31.5498 17.5428C33.3328 33.4835 44.7806 35.1161 50.2817 33.9398H51.5021L53.4125 28.1027C51.2687 14.6243 40.1374 12.5813 34.8398 13.2446L36.1664 18.1L31.5498 17.5428Z" fill="#FFA4BE" stroke="#FFA4BE" stroke-width="0.371453" stroke-linejoin="round"/>
<path d="M66.2504 8.26949C72.3819 23.0914 63.1434 30.0461 57.7577 31.6707L56.6888 32.2597L52.1986 28.0693C47.5714 15.2298 56.3346 8.06845 61.2945 6.09272L62.4759 10.9855L66.2504 8.26949Z" fill="#FFA4BE" stroke="#FFA4BE" stroke-width="0.371453" stroke-linejoin="round"/>
<path d="M62.5218 59.1319C71.459 44.1617 63.0493 35.6233 57.7274 33.2254L56.7171 32.4665L51.3227 36.3543C44.2926 49.4079 52.1721 58.1062 56.9906 60.8237L59.0643 55.7766L62.5218 59.1319Z" fill="#FFA4BE" stroke="#FFA4BE" stroke-width="0.371453" stroke-linejoin="round"/>
<path d="M81.0393 33.3405C68.3737 21.3587 58.2094 27.7079 54.7104 32.3802L53.7498 33.201L56.3701 39.3124C67.5801 49.0156 77.7852 43.2186 81.4864 39.1073L77.0118 35.9847L81.0393 33.3405Z" fill="#FFA4BE" stroke="#FFA4BE" stroke-width="0.371453" stroke-linejoin="round"/>
<path d="M30.9578 50.4661C48.133 53.4648 53.1032 42.5597 53.4414 36.7323L53.7893 35.5175L48.2308 31.8682C33.5271 29.9659 28.2181 40.4331 27.4015 45.9044L32.8563 46.038L30.9578 50.4661Z" fill="#FFA4BE" stroke="#FFA4BE" stroke-width="0.371453" stroke-linejoin="round"/>
<circle cx="54.4607" cy="33.7168" r="5.20359" fill="#FFC6D6"/>
<path d="M71.8615 14.8033C73.8712 32.7706 86.7745 34.6108 92.9749 33.285H94.3506L96.5038 26.7057C94.0874 11.5136 81.541 9.21091 75.5698 9.95855L77.0651 15.4313L71.8615 14.8033Z" fill="#ED5E86" stroke="#ED5E86" stroke-width="0.418679" stroke-linejoin="round"/>
<path d="M110.974 4.35111C117.885 21.0574 107.472 28.8964 101.402 30.7276L100.197 31.3915L95.1356 26.6683C89.9201 12.1963 99.7974 4.12451 105.388 1.89758L106.72 7.41244L110.974 4.35111Z" fill="#ED5E86" stroke="#ED5E86" stroke-width="0.418679" stroke-linejoin="round"/>
<path d="M106.771 61.68C116.845 44.8065 107.366 35.1826 101.367 32.4798L100.229 31.6243L94.1484 36.0065C86.2245 50.7197 95.1058 60.5239 100.537 63.5869L102.874 57.8981L106.771 61.68Z" fill="#ED5E86" stroke="#ED5E86" stroke-width="0.418679" stroke-linejoin="round"/>
<path d="M127.643 32.6095C113.367 19.1044 101.911 26.2608 97.9667 31.5272L96.8839 32.4524L99.8374 39.3407C112.473 50.2775 123.975 43.7436 128.147 39.1095L123.104 35.5899L127.643 32.6095Z" fill="#ED5E86" stroke="#ED5E86" stroke-width="0.418679" stroke-linejoin="round"/>
<path d="M71.1943 51.9124C90.5532 55.2925 96.1553 43.0008 96.5365 36.4325L96.9287 35.0633L90.6634 30.9501C74.0903 28.8059 68.1063 40.6038 67.1859 46.7708L73.3342 46.9214L71.1943 51.9124Z" fill="#ED5E86" stroke="#ED5E86" stroke-width="0.418679" stroke-linejoin="round"/>
<path d="M74.5498 16.5428C76.3327 32.4835 87.7806 34.1161 93.2816 32.9398H94.5021L96.4124 27.1027C94.2686 13.6243 83.1374 11.5813 77.8398 12.2446L79.1664 17.1L74.5498 16.5428Z" fill="#FFA4BE" stroke="#FFA4BE" stroke-width="0.371453" stroke-linejoin="round"/>
<path d="M109.25 7.26949C115.382 22.0914 106.143 29.0461 100.758 30.6707L99.6887 31.2597L95.1986 27.0693C90.5714 14.2298 99.3345 7.06845 104.295 5.09272L105.476 9.98551L109.25 7.26949Z" fill="#FFA4BE" stroke="#FFA4BE" stroke-width="0.371453" stroke-linejoin="round"/>
<path d="M105.522 58.1319C114.459 43.1617 106.049 34.6233 100.727 32.2254L99.7171 31.4665L94.3227 35.3543C87.2927 48.4079 95.1721 57.1062 99.9906 59.8237L102.064 54.7766L105.522 58.1319Z" fill="#FFA4BE" stroke="#FFA4BE" stroke-width="0.371453" stroke-linejoin="round"/>
<path d="M124.039 32.3405C111.374 20.3587 101.209 26.7079 97.7104 31.3802L96.7497 32.201L99.37 38.3124C110.58 48.0156 120.785 42.2186 124.486 38.1073L120.012 34.9847L124.039 32.3405Z" fill="#FFA4BE" stroke="#FFA4BE" stroke-width="0.371453" stroke-linejoin="round"/>
<path d="M73.9578 49.4661C91.133 52.4648 96.1033 41.5597 96.4415 35.7323L96.7894 34.5175L91.2308 30.8682C76.5271 28.9659 71.2181 39.4331 70.4015 44.9044L75.8563 45.038L73.9578 49.4661Z" fill="#FFA4BE" stroke="#FFA4BE" stroke-width="0.371453" stroke-linejoin="round"/>
<circle cx="97.4608" cy="32.7168" r="5.20359" fill="#FFC6D6"/>
<path d="M51.8615 32.8033C53.8712 50.7706 66.7745 52.6108 72.9749 51.285H74.3506L76.5038 44.7057C74.0874 29.5136 61.541 27.2109 55.5698 27.9586L57.0651 33.4313L51.8615 32.8033Z" fill="#ED5E86" stroke="#ED5E86" stroke-width="0.418679" stroke-linejoin="round"/>
<path d="M90.974 22.3511C97.885 39.0574 87.4719 46.8964 81.4015 48.7276L80.1967 49.3915L75.1356 44.6683C69.9201 30.1963 79.7974 22.1245 85.388 19.8976L86.7196 25.4124L90.974 22.3511Z" fill="#ED5E86" stroke="#ED5E86" stroke-width="0.418679" stroke-linejoin="round"/>
<path d="M86.7713 79.68C96.8448 62.8065 87.366 53.1826 81.3674 50.4798L80.2286 49.6243L74.1484 54.0065C66.2245 68.7197 75.1058 78.5239 80.5369 81.5869L82.8742 75.8981L86.7713 79.68Z" fill="#ED5E86" stroke="#ED5E86" stroke-width="0.418679" stroke-linejoin="round"/>
<path d="M107.643 50.6095C93.3672 37.1044 81.9105 44.2608 77.9667 49.5272L76.8839 50.4524L79.8374 57.3407C92.4727 68.2775 103.975 61.7436 108.147 57.1095L103.104 53.5899L107.643 50.6095Z" fill="#ED5E86" stroke="#ED5E86" stroke-width="0.418679" stroke-linejoin="round"/>
<path d="M51.1943 69.9124C70.5532 73.2925 76.1553 61.0008 76.5365 54.4325L76.9287 53.0633L70.6634 48.9501C54.0903 46.8059 48.1063 58.6038 47.1859 64.7708L53.3342 64.9214L51.1943 69.9124Z" fill="#ED5E86" stroke="#ED5E86" stroke-width="0.418679" stroke-linejoin="round"/>
<path d="M54.5498 34.5428C56.3327 50.4835 67.7806 52.1161 73.2816 50.9398H74.5021L76.4124 45.1027C74.2686 31.6243 63.1374 29.5813 57.8398 30.2446L59.1664 35.1L54.5498 34.5428Z" fill="#FFA4BE" stroke="#FFA4BE" stroke-width="0.371453" stroke-linejoin="round"/>
<path d="M89.2504 25.2695C95.3819 40.0914 86.1434 47.0461 80.7577 48.6707L79.6887 49.2597L75.1986 45.0693C70.5714 32.2298 79.3345 25.0684 84.2945 23.0927L85.4759 27.9855L89.2504 25.2695Z" fill="#FFA4BE" stroke="#FFA4BE" stroke-width="0.371453" stroke-linejoin="round"/>
<path d="M85.5218 76.1319C94.459 61.1617 86.0493 52.6233 80.7274 50.2254L79.7171 49.4665L74.3227 53.3543C67.2927 66.4079 75.1721 75.1062 79.9906 77.8237L82.0643 72.7766L85.5218 76.1319Z" fill="#FFA4BE" stroke="#FFA4BE" stroke-width="0.371453" stroke-linejoin="round"/>
<path d="M104.039 50.3405C91.3736 38.3587 81.2093 44.7079 77.7104 49.3802L76.7497 50.201L79.37 56.3124C90.5801 66.0156 100.785 60.2186 104.486 56.1073L100.012 52.9847L104.039 50.3405Z" fill="#FFA4BE" stroke="#FFA4BE" stroke-width="0.371453" stroke-linejoin="round"/>
<path d="M53.9578 67.4661C71.133 70.4648 76.1033 59.5597 76.4415 53.7323L76.7894 52.5175L71.2308 48.8682C56.5271 46.9659 51.2181 57.4331 50.4015 62.9044L55.8563 63.038L53.9578 67.4661Z" fill="#FFA4BE" stroke="#FFA4BE" stroke-width="0.371453" stroke-linejoin="round"/>
<circle cx="77.4608" cy="50.7168" r="5.20359" fill="#FFC6D6"/>
</svg>
