<svg width="174" height="293" viewBox="0 0 174 293" fill="none" xmlns="http://www.w3.org/2000/svg">
<path d="M172 67.1614C173.333 86.9947 165.7 123.061 124.5 108.661L172 67.1614Z" fill="#019A61" stroke="#019A61" stroke-width="3"/>
<path d="M170 65.1702C151.114 64.8518 115.043 73.0042 121.841 108.161L170 65.1702Z" fill="#50715B" stroke="#50715B" stroke-width="3"/>
<path d="M5.85612 91.0804C23.0606 81.1233 58.7897 72.04 64.0698 115.363L5.85612 91.0804Z" fill="#50715B" stroke="#50715B" stroke-width="3"/>
<path d="M4.95319 93.7542C13.0098 110.838 36.2575 139.599 64.7956 117.969L4.95319 93.7542Z" fill="#019A61" stroke="#019A61" stroke-width="3"/>
<path d="M62.5 39.6614C65.3333 60.828 73 107.261 75 107.661" stroke="#FF3D63" stroke-width="3"/>
<path d="M46 86.1614C49.3333 93.828 56.5 109.261 58.5 109.661" stroke="#FF3D63" stroke-width="3"/>
<path d="M107 98.1614C110.333 91.4947 116.6 77.7614 115 76.1614" stroke="#FF3D63" stroke-width="3"/>
<path d="M133 93.1614C135.019 86.1917 138.813 71.8341 137.844 70.1614" stroke="#FF3D63" stroke-width="3"/>
<path d="M117 99.1614C121.037 77.3432 128.627 32.3977 126.689 27.1614" stroke="#FF3D63" stroke-width="3"/>
<path d="M97 107.161C97.8074 85.9493 99.3254 42.2523 98.9378 37.1614" stroke="#FF3D63" stroke-width="3"/>
<ellipse cx="60.6735" cy="26.4476" rx="7" ry="13.5" transform="rotate(-7.36817 60.6735 26.4476)" fill="#D9224E"/>
<ellipse cx="128.868" cy="16.5275" rx="7" ry="13.5" transform="rotate(8.26579 128.868 16.5275)" fill="#D9224E"/>
<path d="M46.7598 97.2806L95.8625 287.415C96.8371 289.765 99.6747 292.075 101.945 287.375L142.344 94.838L46.7598 97.2806Z" fill="#75A74B"/>
<line x1="52.1099" y1="116.476" x2="121.834" y2="193.447" stroke="#DFDB29"/>
<line x1="59.38" y1="147.004" x2="118.004" y2="211.061" stroke="#DFDB29"/>
<line x1="67.482" y1="178.681" x2="114.017" y2="229.666" stroke="#DFDB29"/>
<line x1="76.5758" y1="210.52" x2="110.036" y2="248.275" stroke="#DFDB29"/>
<path d="M99.2114 40.6022C100.012 47.7784 105.776 62.0495 122.425 61.7244C120.461 53.2535 113.07 37.1698 99.2114 40.6022Z" fill="#FF3D63" stroke="#FF3D63"/>
<path d="M99.5519 40.2888C106.696 39.2423 120.761 32.9924 119.866 16.3648C111.467 18.6175 95.6462 26.5561 99.5519 40.2888Z" fill="#FF3D63" stroke="#FF3D63"/>
<path d="M99.3501 40.4555C98.8396 47.6582 93.6564 62.1502 77.0083 62.4974C78.6282 53.9541 85.3644 37.5852 99.3501 40.4555Z" fill="#FF3D63" stroke="#FF3D63"/>
<path d="M98.7783 39.4881C91.5617 39.2432 76.8886 34.5973 75.9285 17.9733C84.5256 19.2774 101.132 25.4061 98.7783 39.4881Z" fill="#FF3D63" stroke="#FF3D63"/>
<line x1="88.3172" y1="31.1379" x2="110.01" y2="49.7775" stroke="#D9224E"/>
<line x1="107.542" y1="30.2402" x2="89.9728" y2="51.0086" stroke="#D9224E"/>
<path d="M40.3495 55.7636C41.1504 62.9398 46.9142 77.2109 63.5627 76.8858C61.5994 68.4149 54.208 52.3311 40.3495 55.7636Z" fill="#FF3D63" stroke="#FF3D63"/>
<path d="M40.6901 55.4501C47.8345 54.4036 61.8995 48.1537 61.0036 31.5261C52.6051 33.7789 36.7843 41.7175 40.6901 55.4501Z" fill="#FF3D63" stroke="#FF3D63"/>
<path d="M40.4883 55.6169C39.9777 62.8195 34.7945 77.3116 18.1464 77.6587C19.7663 69.1155 26.5025 52.7466 40.4883 55.6169Z" fill="#FF3D63" stroke="#FF3D63"/>
<path d="M39.9164 54.6495C32.6999 54.4045 18.0267 49.7587 17.0666 33.1347C25.6637 34.4388 42.2696 40.5675 39.9164 54.6495Z" fill="#FF3D63" stroke="#FF3D63"/>
<line x1="29.4553" y1="46.2992" x2="51.1478" y2="64.9389" stroke="#D9224E"/>
<line x1="48.6799" y1="45.4015" x2="31.1109" y2="66.17" stroke="#D9224E"/>
<path d="M44.9779 84.4601C49.2927 90.5213 61.6296 100.486 76.4591 91.8564C70.4491 85.2115 55.7388 74.4292 44.9779 84.4601Z" fill="#FC6C8D" stroke="#FC6C8D"/>
<path d="M45.1276 84.0074C51.0373 79.4872 60.5733 66.8158 51.4399 52.291C45.005 58.5254 34.7336 73.5968 45.1276 84.0074Z" fill="#FC6C8D" stroke="#FC6C8D"/>
<path d="M45.0294 84.2586C48.1765 91.0004 50.7662 106.646 35.9481 115.296C33.1287 106.791 30.9977 88.6775 45.0294 84.2586Z" fill="#FC6C8D" stroke="#FC6C8D"/>
<path d="M44.03 83.6737C37.4088 87.067 21.8688 90.2312 12.6795 75.7418C21.0743 72.611 39.0973 69.8142 44.03 83.6737Z" fill="#FC6C8D" stroke="#FC6C8D"/>
<line x1="30.425" y1="81.4077" x2="59.2936" y2="87.33" stroke="#DD2A54"/>
<line x1="47.2758" y1="70.9544" x2="41.8548" y2="98.4547" stroke="#DD2A54"/>
<path d="M117 75.1614C114.667 81.9947 113.8 97.3614 129 104.161C130.833 95.6614 131 77.9614 117 75.1614Z" fill="#FC6C8D" stroke="#FC6C8D"/>
<path d="M117.442 75.023C124.351 77.1206 139.738 77.4597 146.013 62.0354C137.455 60.4947 119.76 60.9352 117.442 75.023Z" fill="#FC6C8D" stroke="#FC6C8D"/>
<path d="M117.188 75.0878C113.657 81.3863 102.793 92.2883 87.5837 85.5084C92.6895 78.4698 105.759 66.5316 117.188 75.0878Z" fill="#FC6C8D" stroke="#FC6C8D"/>
<path d="M117.083 73.9691C110.659 70.6725 99.3639 60.2172 105.579 44.7688C112.801 49.6119 125.212 62.2322 117.083 73.9691Z" fill="#FC6C8D" stroke="#FC6C8D"/>
<line x1="111.177" y1="61.9571" x2="122.859" y2="88.0633" stroke="#DD2A54"/>
<line x1="128.952" y1="69.3369" x2="104.208" y2="80.6392" stroke="#DD2A54"/>
<path d="M79.5357 81.8507C80.8044 88.9591 87.4898 102.822 104.081 101.408C101.568 93.0842 93.1398 77.5186 79.5357 81.8507Z" fill="#FF3D63" stroke="#FF3D63"/>
<path d="M79.8549 81.5158C86.9156 80.004 100.541 72.847 98.5593 56.3137C90.3262 59.1112 75.0589 68.0682 79.8549 81.5158Z" fill="#FF3D63" stroke="#FF3D63"/>
<path d="M79.6644 81.6954C79.6263 88.916 75.4027 103.716 58.813 105.152C59.8703 96.5212 65.5208 79.7465 79.6644 81.6954Z" fill="#FF3D63" stroke="#FF3D63"/>
<path d="M79.0306 80.7673C71.8135 80.9952 56.8677 77.3196 54.8217 60.7941C63.4858 61.5327 80.4572 66.5615 79.0306 80.7673Z" fill="#FF3D63" stroke="#FF3D63"/>
<line x1="68.0454" y1="73.1195" x2="90.9112" y2="90.2996" stroke="#D9224E"/>
<line x1="87.1701" y1="70.966" x2="70.9979" y2="92.8397" stroke="#D9224E"/>
</svg>
