<svg width="163" height="325" viewBox="0 0 163 325" fill="none" xmlns="http://www.w3.org/2000/svg">
<path d="M104.344 51.02C108.868 73.3519 112.466 128.213 90.6682 169" stroke="#5CB357" stroke-width="4.22111" stroke-linejoin="round"/>
<path d="M107.764 105.665C114.166 97.9619 129.798 83.8001 141.11 88.781C130.522 97.2232 109.03 112.419 107.764 105.665Z" fill="#5CB357" stroke="#5CB357" stroke-width="2.11055" stroke-linejoin="round"/>
<path d="M106.075 118.118C99.6732 110.414 84.0411 96.2523 72.7285 101.233C83.3165 109.675 104.809 124.871 106.075 118.118Z" fill="#5CB357" stroke="#5CB357" stroke-width="2.11055" stroke-linejoin="round"/>
<path d="M38.7598 129.281L87.8625 319.415C88.8371 321.765 91.6747 324.075 93.9451 319.375L134.344 126.838L38.7598 129.281Z" fill="#75A74B"/>
<line x1="44.1099" y1="148.476" x2="113.834" y2="225.447" stroke="#DFDB29"/>
<line x1="51.38" y1="179.004" x2="110.004" y2="243.061" stroke="#DFDB29"/>
<line x1="59.482" y1="210.681" x2="106.017" y2="261.666" stroke="#DFDB29"/>
<line x1="68.5758" y1="242.52" x2="102.036" y2="280.275" stroke="#DFDB29"/>
<path d="M55 42.0503C69.7739 27.3608 81.0653 26.9246 84.8643 28.5427C81.403 23.2241 90.2462 7.96483 95.1005 1C107.257 4.88342 115.784 16.2663 118.528 21.4724C125.366 16.9136 142.131 20.4874 149.658 22.8442C146.197 39.9819 138.296 49.0503 134.779 51.4422C138.578 57.6894 140.794 73.7437 141.427 80.99C120.406 81.0744 111.704 75.3266 109.98 72.4422C110.402 81.8975 91.7236 90.4523 82.3317 93.5477C77.0975 81.5598 78.5327 65.8995 79.9045 59.5678C66.1437 61.003 57.5678 48.4874 55 42.0503Z" fill="#D3B9DA" stroke="#C0B3FF" stroke-width="0.211055" stroke-linejoin="round"/>
<path d="M59.8543 42.5778C72.8553 32.2783 84.6884 32.7989 88.9799 34.3467C83.9146 27.7617 91.7236 13.2411 96.2613 6.80396C109.769 12.6291 115.819 22.809 117.156 27.1708C120.279 21.4301 136.749 23.5125 144.593 25.2713C140.541 43.7597 133.055 50.0703 129.819 50.9145C134.04 50.5768 136.291 68.9246 136.889 78.1406C120.005 78.3939 110.648 70.3668 108.08 66.3215C107.321 79.6602 91.9347 86.2311 84.3367 87.8492C79.1025 68.5165 82.1558 60.8693 84.3367 59.4622C72.602 60.7286 63.1256 48.7336 59.8543 42.5778Z" fill="#AD8CC0" stroke="#AD8CC0" stroke-width="0.211055" stroke-linejoin="round"/>
<path d="M96.5779 50.0703C97.1688 44.3296 74.4523 43.1055 63.0201 43.211L59.7487 42.5779C63.9699 41.3116 88.1357 42.7889 98.0553 44.1608C96.4513 43.5698 95.8392 39.4824 95.7337 37.5126C96.409 38.1879 100.236 38.9899 102.065 39.3065C105.695 40.0663 99.392 16.407 96.1558 6.69849H96.3668L107.553 38.3568C108.221 38.0754 109.621 37.4281 109.874 37.0904C110.149 36.7246 113.04 35.0109 113.53 34.6982C113.542 34.6815 113.555 34.6697 113.568 34.6633C113.624 34.6352 113.605 34.6502 113.53 34.6982C113.133 35.2332 112.941 40.8638 113.146 40.0452C113.315 39.3698 118.07 37.794 120.427 37.0904C121.525 33.8661 137.663 27.7269 143.854 25.0603L144.593 25.2714C141.638 25.4402 124.261 36.9849 117.472 42.3668C114.94 44.1608 115.784 46.4824 115.995 46.1658C116.164 45.9126 120.497 47.8191 122.643 48.804L122.221 49.3317C116.396 49.6693 116.206 51.0201 116.839 51.6533C121.924 55.5131 128.392 64.8494 132.861 71.7644C135.309 74.5238 136.977 76.865 136.757 77.9296C135.824 76.4361 134.472 74.2576 132.861 71.7644C128.708 67.084 122.308 61.2004 119.055 58.3015C110.527 53.2303 107.907 59.5463 107.823 64.329C107.86 64.7537 107.876 65.2063 107.869 65.6884C107.831 65.2585 107.815 64.8013 107.823 64.329C107.409 59.5477 104.394 58.3015 102.487 58.3015C92.4412 61.7628 84.9699 79.4422 84.3367 87.8492C81.6352 82.6995 91.4422 66.4975 95.7337 59.0402C99.8704 54.6502 94.0101 54.7487 90.5628 55.3467C94.0241 53.6583 96.0151 51.1256 96.5779 50.0703Z" fill="#8A64A9" stroke="#8A64A9" stroke-width="0.211055" stroke-linejoin="round"/>
<path d="M112.935 41.4171C111.668 42.1558 107.905 46.3769 106.181 49.1206C105.759 50.1337 106.709 50.3869 107.236 50.3869C110.275 50.2181 113.673 48.6985 114.412 45.4271C114.94 40.7839 114.376 40.5764 112.935 41.4171Z" fill="#FAE2BC" stroke="#FAE2BC" stroke-width="0.211055" stroke-linejoin="round"/>
<path d="M113.967 57.9428C113.537 57.061 110.925 53.681 109.115 52.0942C108.421 51.6642 108.121 52.3248 108.058 52.7088C107.818 54.9411 109.411 57.7708 110.842 58.5322C113.778 60.094 114.457 58.9465 113.967 57.9428Z" fill="#FAE2BC" stroke="#FAE2BC" stroke-width="0.211055" stroke-linejoin="round"/>
<path d="M99.8567 56.912C100.541 56.3061 102.823 53.4084 103.689 51.6991C103.852 51.1143 103.121 51.1963 102.735 51.3103C100.536 52.0496 98.4161 54.1214 98.1986 55.2778C97.7525 57.6502 99.0783 57.6017 99.8567 56.912Z" fill="#FAE2BC" stroke="#FAE2BC" stroke-width="0.211055" stroke-linejoin="round"/>
<path d="M99.667 42.2504C100.461 42.7447 103.287 45.3505 104.483 47.005C104.761 47.6037 104.027 47.6932 103.626 47.6631C101.318 47.3941 98.8194 45.6504 98.3717 44.4408C97.4532 41.9593 98.7637 41.6877 99.667 42.2504Z" fill="#FAE2BC" stroke="#FAE2BC" stroke-width="0.211055" stroke-linejoin="round"/>
<path d="M109.038 38.7325C109.088 39.6661 108.577 43.4762 107.908 45.4052C107.578 45.9769 107.083 45.4272 106.877 45.0809C105.773 43.0371 105.767 39.9898 106.5 38.9289C108.005 36.7526 108.98 37.6698 109.038 38.7325Z" fill="#FAE2BC" stroke="#FAE2BC" stroke-width="0.211055" stroke-linejoin="round"/>
<path d="M118.847 47.8566C118.211 48.2763 115.163 49.2057 113.38 49.4189C112.773 49.3897 112.876 48.8512 113.003 48.5855C113.82 47.0958 116.206 45.9547 117.204 46.1562C119.161 46.4824 119.623 47.344 118.847 47.8566Z" fill="#FAE2BC" stroke="#FAE2BC" stroke-width="0.211055" stroke-linejoin="round"/>
<path d="M58.4716 51.6363C61.5082 21.7792 33.0385 28.5007 18.424 35.5936C1.89927 63.5568 16.4478 75.3435 26.6083 78.0583L46.9235 73.9817L31.4484 66.8976L55.3248 66.9067L58.4716 51.6363Z" fill="#E6E7E6"/>
<path d="M27.576 78.2928C27.2588 78.2239 26.9358 78.1459 26.6083 78.0583M26.6083 78.0583C16.4478 75.3435 1.89927 63.5568 18.424 35.5936C33.0385 28.5007 61.5082 21.7792 58.4716 51.6363L55.3248 66.9067L31.4484 66.8976L46.9235 73.9817L26.6083 78.0583Z" stroke="#E6E7E6" stroke-width="3.31729" stroke-linejoin="round"/>
<path d="M23.2293 79.4111L23.29 79.4166C24.6449 79.437 38.6579 74.9595 45.6161 72.678C46.5566 72.0589 37.1319 68.3766 33.4881 66.6096C35.0889 65.4153 46.5906 65.4839 51.7047 66.1426C49.2147 57.9449 58.1693 51.1203 62.225 48.5339C62.278 48.4342 62.3007 48.417 62.2845 48.4961C62.2648 48.5086 62.2449 48.5212 62.225 48.5339C61.7338 49.459 58.646 57.4902 60.0577 61.7673L63.6207 69.9529C66.1259 75.8755 59.8868 81.7718 56.838 83.966C49.2072 89.4385 45.6314 81.6438 39.3553 80.8714L23.29 79.4166C23.2656 79.4163 23.2454 79.4144 23.2293 79.4111Z" fill="#5CB357" stroke="#5CB357" stroke-width="0.331729" stroke-linejoin="round"/>
<path d="M18.3522 44.8621C14.8436 51.2432 10.3572 65.4806 20.4811 71.3806" stroke="#AD8CC0" stroke-width="0.995187" stroke-linejoin="round"/>
<path d="M24.8796 35.333C32.1329 34.3514 41.861 30.9088 51.3205 37.5999" stroke="#AD8CC0" stroke-width="0.995187" stroke-linejoin="round"/>
<path d="M22.9842 40.293C29.951 40.3441 43.7895 43.4461 43.4095 55.445" stroke="#AD8CC0" stroke-width="0.995187" stroke-linejoin="round"/>
<path d="M52.9713 78.0759C62.9168 83.2302 83.7911 100.109 87.7236 126.389" stroke="#5CB357" stroke-width="6.63458" stroke-linejoin="round"/>
<path d="M12 100.05C26.7739 85.3608 38.0653 84.9246 41.8643 86.5427C38.403 81.2241 47.2462 65.9648 52.1005 59C64.2573 62.8834 72.7839 74.2663 75.5276 79.4724C82.3658 74.9136 99.1307 78.4874 106.658 80.8442C103.197 97.9819 95.2965 107.05 91.7789 109.442C95.5779 115.689 97.794 131.744 98.4271 138.99C77.406 139.074 68.7035 133.327 66.9799 130.442C67.402 139.897 48.7236 148.452 39.3317 151.548C34.0975 139.56 35.5327 123.899 36.9045 117.568C23.1437 119.003 14.5678 106.487 12 100.05Z" fill="#D3B9DA" stroke="#C0B3FF" stroke-width="0.211055" stroke-linejoin="round"/>
<path d="M16.8542 100.578C29.8553 90.2783 41.6884 90.7989 45.9799 92.3467C40.9146 85.7617 48.7236 71.2411 53.2613 64.804C66.7688 70.6291 72.8191 80.809 74.1558 85.1708C77.2794 79.4301 93.7487 81.5125 101.593 83.2713C97.5407 101.76 90.0553 108.07 86.8191 108.915C91.0402 108.577 93.2914 126.925 93.8894 136.141C77.005 136.394 67.6482 128.367 65.0804 124.322C64.3206 137.66 48.9347 144.231 41.3367 145.849C36.1025 126.517 39.1558 118.869 41.3367 117.462C29.602 118.729 20.1256 106.734 16.8542 100.578Z" fill="#AD8CC0" stroke="#AD8CC0" stroke-width="0.211055" stroke-linejoin="round"/>
<path d="M53.5779 108.07C54.1688 102.33 31.4522 101.106 20.0201 101.211L16.7487 100.578C20.9698 99.3116 45.1357 100.789 55.0552 102.161C53.4512 101.57 52.8392 97.4824 52.7336 95.5126C53.409 96.1879 57.2362 96.9899 59.0653 97.3065C62.6954 98.0663 56.3919 74.407 53.1558 64.6985H53.3668L64.5527 96.3568C65.2211 96.0754 66.6211 95.4281 66.8743 95.0904C67.1488 94.7246 70.0395 93.0109 70.53 92.6982C70.5424 92.6815 70.555 92.6697 70.5678 92.6633C70.624 92.6352 70.6053 92.6502 70.53 92.6982C70.1333 93.2332 69.9411 98.8638 70.1457 98.0452C70.3145 97.3698 75.0703 95.794 77.4271 95.0904C78.5246 91.8661 94.6633 85.7269 100.854 83.0603L101.593 83.2714C98.6382 83.4402 81.2613 94.9849 74.4723 100.367C71.9397 102.161 72.7839 104.482 72.9949 104.166C73.1638 103.913 77.4975 105.819 79.6432 106.804L79.2211 107.332C73.396 107.669 73.206 109.02 73.8392 109.653C78.9244 113.513 85.3916 122.849 89.8609 129.764C92.3093 132.524 93.9766 134.865 93.7574 135.93C92.8239 134.436 91.4723 132.258 89.8609 129.764C85.7081 125.084 79.3082 119.2 76.0552 116.302C67.5265 111.23 64.9069 117.546 64.8232 122.329C64.86 122.754 64.8762 123.206 64.8693 123.688C64.8314 123.259 64.8149 122.801 64.8232 122.329C64.4092 117.548 61.3935 116.302 59.4874 116.302C49.4412 119.763 41.9698 137.442 41.3367 145.849C38.6351 140.699 48.4422 124.497 52.7336 117.04C56.8703 112.65 51.01 112.749 47.5628 113.347C51.0241 111.658 53.015 109.126 53.5779 108.07Z" fill="#8A64A9" stroke="#8A64A9" stroke-width="0.211055" stroke-linejoin="round"/>
<path d="M69.9346 99.4171C68.6683 100.156 64.9045 104.377 63.1809 107.121C62.7588 108.134 63.7085 108.387 64.2361 108.387C67.2753 108.218 70.6733 106.698 71.412 103.427C71.9397 98.7839 71.3759 98.5764 69.9346 99.4171Z" fill="#FAE2BC" stroke="#FAE2BC" stroke-width="0.211055" stroke-linejoin="round"/>
<path d="M70.9668 115.943C70.5366 115.061 67.9251 111.681 66.1154 110.094C65.4215 109.664 65.1214 110.325 65.0581 110.709C64.8176 112.941 66.4113 115.771 67.8424 116.532C70.7781 118.094 71.4565 116.947 70.9668 115.943Z" fill="#FAE2BC" stroke="#FAE2BC" stroke-width="0.211055" stroke-linejoin="round"/>
<path d="M56.8567 114.912C57.5405 114.306 59.823 111.408 60.6891 109.699C60.8521 109.114 60.1208 109.196 59.7348 109.31C57.5355 110.05 55.4161 112.121 55.1986 113.278C54.7525 115.65 56.0783 115.602 56.8567 114.912Z" fill="#FAE2BC" stroke="#FAE2BC" stroke-width="0.211055" stroke-linejoin="round"/>
<path d="M56.667 100.25C57.4606 100.745 60.287 103.35 61.4831 105.005C61.7615 105.604 61.0275 105.693 60.6257 105.663C58.3184 105.394 55.8194 103.65 55.3717 102.441C54.4532 99.9593 55.7637 99.6877 56.667 100.25Z" fill="#FAE2BC" stroke="#FAE2BC" stroke-width="0.211055" stroke-linejoin="round"/>
<path d="M66.0376 96.7325C66.0883 97.6661 65.5767 101.476 64.9082 103.405C64.5778 103.977 64.0832 103.427 63.8772 103.081C62.7733 101.037 62.7669 97.9898 63.5005 96.9289C65.0054 94.7526 65.9799 95.6698 66.0376 96.7325Z" fill="#FAE2BC" stroke="#FAE2BC" stroke-width="0.211055" stroke-linejoin="round"/>
<path d="M75.8467 105.857C75.211 106.276 72.1627 107.206 70.38 107.419C69.7734 107.39 69.8761 106.851 70.0033 106.586C70.8199 105.096 73.206 103.955 74.2043 104.156C76.1608 104.482 76.623 105.344 75.8467 105.857Z" fill="#FAE2BC" stroke="#FAE2BC" stroke-width="0.211055" stroke-linejoin="round"/>
<path d="M102 104.14C111.408 94.7862 118.598 94.5084 121.017 95.5388C118.813 92.152 124.444 82.4351 127.535 78C135.277 80.4729 140.706 87.7214 142.454 91.0365C146.808 88.1335 157.484 90.4093 162.277 91.9101C160.073 102.823 155.042 108.598 152.802 110.121C155.221 114.099 156.632 124.322 157.036 128.936C143.65 128.99 138.108 125.33 137.01 123.493C137.279 129.514 125.385 134.962 119.404 136.933C116.071 129.299 116.985 119.327 117.859 115.295C109.096 116.209 103.635 108.239 102 104.14Z" fill="#D3B9DA" stroke="#C0B3FF" stroke-width="0.134397" stroke-linejoin="round"/>
<path d="M105.091 104.476C113.37 97.9175 120.905 98.249 123.638 99.2346C120.412 95.0414 125.385 85.7949 128.275 81.6958C136.876 85.4052 140.729 91.8876 141.58 94.6651C143.569 91.0095 154.056 92.3356 159.052 93.4555C156.471 105.229 151.704 109.247 149.644 109.785C152.332 109.57 153.765 121.253 154.146 127.122C143.394 127.283 137.436 122.172 135.801 119.596C135.317 128.09 125.519 132.274 120.681 133.304C117.348 120.993 119.292 116.124 120.681 115.228C113.209 116.034 107.174 108.396 105.091 104.476Z" fill="#AD8CC0" stroke="#AD8CC0" stroke-width="0.134397" stroke-linejoin="round"/>
<path d="M128.476 109.247C128.853 105.592 114.387 104.812 107.107 104.879L105.024 104.476C107.712 103.67 123.1 104.611 129.417 105.484C128.396 105.108 128.006 102.505 127.939 101.251C128.369 101.681 130.806 102.191 131.971 102.393C134.282 102.877 130.268 87.8109 128.207 81.6287H128.342L135.465 101.788C135.89 101.609 136.782 101.197 136.943 100.982C137.118 100.749 138.959 99.6576 139.271 99.4585C139.279 99.4478 139.287 99.4404 139.295 99.4363C139.331 99.4184 139.319 99.4279 139.271 99.4585C139.018 99.7992 138.896 103.385 139.026 102.863C139.134 102.433 142.162 101.43 143.663 100.982C144.362 98.9286 154.639 95.0192 158.581 93.3212L159.052 93.4556C157.17 93.5631 146.105 100.915 141.782 104.342C140.169 105.484 140.706 106.963 140.841 106.761C140.948 106.6 143.708 107.814 145.074 108.441L144.805 108.777C141.096 108.992 140.975 109.852 141.378 110.255C144.617 112.713 148.735 118.658 151.581 123.062C153.14 124.819 154.202 126.31 154.062 126.988C153.468 126.037 152.607 124.649 151.581 123.062C148.936 120.081 144.861 116.335 142.79 114.489C137.358 111.26 135.69 115.281 135.637 118.327C135.66 118.597 135.671 118.886 135.666 119.193C135.642 118.919 135.632 118.628 135.637 118.327C135.373 115.282 133.453 114.489 132.239 114.489C125.842 116.693 121.084 127.951 120.681 133.304C118.961 130.025 125.206 119.708 127.939 114.959C130.573 112.164 126.841 112.226 124.646 112.607C126.85 111.532 128.118 109.919 128.476 109.247Z" fill="#8A64A9" stroke="#8A64A9" stroke-width="0.134397" stroke-linejoin="round"/>
<path d="M138.892 103.737C138.086 104.207 135.689 106.895 134.591 108.643C134.322 109.288 134.927 109.449 135.263 109.449C137.199 109.341 139.362 108.374 139.833 106.291C140.169 103.334 139.81 103.202 138.892 103.737Z" fill="#FAE2BC" stroke="#FAE2BC" stroke-width="0.134397" stroke-linejoin="round"/>
<path d="M139.549 114.26C139.275 113.699 137.612 111.547 136.46 110.536C136.018 110.262 135.827 110.683 135.787 110.927C135.634 112.349 136.648 114.151 137.56 114.636C139.429 115.63 139.861 114.9 139.549 114.26Z" fill="#FAE2BC" stroke="#FAE2BC" stroke-width="0.134397" stroke-linejoin="round"/>
<path d="M130.564 113.604C131 113.218 132.453 111.373 133.005 110.284C133.108 109.912 132.643 109.964 132.397 110.037C130.996 110.507 129.647 111.827 129.508 112.563C129.224 114.074 130.069 114.043 130.564 113.604Z" fill="#FAE2BC" stroke="#FAE2BC" stroke-width="0.134397" stroke-linejoin="round"/>
<path d="M130.443 104.268C130.949 104.582 132.748 106.242 133.51 107.295C133.687 107.677 133.22 107.734 132.964 107.714C131.495 107.543 129.904 106.433 129.618 105.662C129.034 104.082 129.868 103.909 130.443 104.268Z" fill="#FAE2BC" stroke="#FAE2BC" stroke-width="0.134397" stroke-linejoin="round"/>
<path d="M136.41 102.028C136.443 102.622 136.117 105.048 135.691 106.277C135.481 106.641 135.166 106.291 135.035 106.07C134.332 104.769 134.328 102.828 134.795 102.153C135.753 100.767 136.374 101.351 136.41 102.028Z" fill="#FAE2BC" stroke="#FAE2BC" stroke-width="0.134397" stroke-linejoin="round"/>
<path d="M142.657 107.838C142.252 108.105 140.311 108.697 139.176 108.832C138.789 108.814 138.855 108.471 138.936 108.302C139.456 107.353 140.975 106.626 141.611 106.755C142.857 106.962 143.151 107.511 142.657 107.838Z" fill="#FAE2BC" stroke="#FAE2BC" stroke-width="0.134397" stroke-linejoin="round"/>
</svg>
