<svg width="146" height="270" viewBox="0 0 146 270" fill="none" xmlns="http://www.w3.org/2000/svg">
<path d="M83 14L81 19.5L83 36L121.5 43.5L125.5 40L123 37H129.5L126.5 34L129.5 32.5L126.5 31L127.5 27.5L121.5 26L127.5 22H124L126.5 19.5H122L124 16H116.5L121.5 11H118.5V7.5L113.5 9.5V5.5L108 9.5V2L104.5 5.5L103.5 1L101 5.5L98.5 2L96 9.5L92.5 3.5L91 7.5L89 5.5L88 9.5L85 8.5L88 16L83 14Z" fill="#FFE000" stroke="#FFE000" stroke-width="2" stroke-linejoin="round"/>
<path d="M32.5 29.5L29.5 30.5L52.5 48L83 36.5L88 32L82 30.5L86 27L77.5 26L82 15L76 17.5L77.5 10L71.5 13.5L73 5.5L64.5 10L67 3L61.5 8L60 3L56.5 7.5L54.5 4.5L52.5 9.5L50 3L48 8L45.5 5.5V10L41.5 9L43 15L37.5 12V16H34.5L35.5 20L33 21L37.5 26H31L32.5 29.5Z" fill="#F2C400" stroke="#F2C400" stroke-width="2" stroke-linejoin="round"/>
<path d="M15.7669 46.046C14.1669 48.846 16.4336 50.546 17.7669 51.046L26.7669 53.546L40.7669 46.046V41.046C41.9669 37.046 39.6002 36.7127 38.2669 37.046C39.0669 33.046 36.2669 32.7127 34.7669 33.046C34.7669 28.646 31.7669 29.546 30.2669 30.546C29.4669 27.746 26.6002 29.3794 25.2669 30.546C23.2669 30.146 22.1002 32.046 21.7669 33.046C18.9669 32.246 17.9336 34.7127 17.7669 36.046C14.1669 36.046 14.9336 39.3794 15.7669 41.046C12.5669 42.646 14.4336 45.046 15.7669 46.046Z" fill="#E23A3D" stroke="#E23A3D" stroke-linejoin="round"/>
<path d="M64.7669 47.046C63.1669 49.846 65.4336 51.546 66.7669 52.046L75.7669 54.546L89.7669 47.046V42.046C90.9669 38.046 88.6002 37.7127 87.2669 38.046C88.0669 34.046 85.2669 33.7127 83.7669 34.046C83.7669 29.646 80.7669 30.546 79.2669 31.546C78.4669 28.746 75.6002 30.3794 74.2669 31.546C72.2669 31.146 71.1002 33.046 70.7669 34.046C67.9669 33.246 66.9336 35.7127 66.7669 37.046C63.1669 37.046 63.9336 40.3794 64.7669 42.046C61.5669 43.646 63.4336 46.046 64.7669 47.046Z" fill="#E23A3D" stroke="#E23A3D" stroke-linejoin="round"/>
<path d="M28.7599 74.2806L77.8626 264.415C78.8372 266.765 81.6747 269.075 83.9452 264.375L124.344 71.838L28.7599 74.2806Z" fill="#75A74B"/>
<line x1="34.1099" y1="93.4758" x2="103.834" y2="170.447" stroke="#DFDB29"/>
<line x1="41.3801" y1="124.004" x2="100.004" y2="188.061" stroke="#DFDB29"/>
<line x1="49.482" y1="155.681" x2="96.0174" y2="206.666" stroke="#DFDB29"/>
<line x1="58.5758" y1="187.52" x2="92.0357" y2="225.275" stroke="#DFDB29"/>
<path d="M52.4416 105.352L53.44 84.3521L43.0573 79.3823L37.5284 85.5004L40.5887 105.265L43.5591 102.882L45.9416 105.853L48.9414 102.352L52.4416 105.352Z" fill="#E7C803" stroke="#E7C803" stroke-linejoin="round"/>
<path d="M23.5295 97.6196L31.9965 78.3761L43.506 78.5555L45.7281 86.4966L34.1787 102.825L32.5817 99.368L29.1249 100.965L27.9999 96.4945L23.5295 97.6196Z" fill="#E9A600" stroke="#E9A600" stroke-linejoin="round"/>
<path d="M57.9922 104.197L46.8596 86.3629L53.4898 76.9534L61.3033 79.5896L68.2911 98.3292L64.5352 97.7019L63.9079 101.458L59.5803 99.8697L57.9922 104.197Z" fill="#F2BE01" stroke="#F2BE01" stroke-linejoin="round"/>
<path d="M21.2091 94.9535L39.5557 84.687L38.2777 73.2473L30.1606 71.7939L15.0104 84.8503L18.604 86.1097L17.3445 89.7033L21.902 90.3961L21.2091 94.9535Z" fill="#F2C400" stroke="#F2C400" stroke-linejoin="round"/>
<path d="M81.0374 84.5705L65.4843 70.4248L55.0398 75.2634L56.2346 83.4226L73.4204 93.6524L73.4756 89.8449L77.2831 89.9002L76.4955 85.3582L81.0374 84.5705Z" fill="#F2C400" stroke="#F2C400" stroke-linejoin="round"/>
<path d="M10.8128 76.2766L31.7468 78.2184L37.1785 68.0696L31.3152 62.2711L11.4331 64.4396L13.6797 67.5141L10.6052 69.7607L13.9669 72.9148L10.8128 76.2766Z" fill="#E9A600" stroke="#E9A600" stroke-linejoin="round"/>
<path d="M82.8152 76.1612L61.8813 78.1029L56.4496 67.9541L62.3129 62.1557L82.195 64.3241L79.9484 67.3987L83.0229 69.6453L79.6611 72.7994L82.8152 76.1612Z" fill="#E9A600" stroke="#E9A600" stroke-linejoin="round"/>
<path d="M58.7246 37.0872L48.0517 55.2004L54.9205 64.4373L62.664 61.6021L69.1701 42.6899L65.4316 43.4131L64.7084 39.6745L60.4229 41.3727L58.7246 37.0872Z" fill="#E9A600" stroke="#E9A600" stroke-linejoin="round"/>
<path d="M41.5387 35.2256L40.5337 57.5667L51.3983 62.5719L57.1676 55.924L53.9315 35.0037L50.8302 37.6143L48.3337 34.5212L45.2039 38.3202L41.5387 35.2256Z" fill="#E7C803" stroke="#E7C803" stroke-linejoin="round"/>
<path d="M13.2222 56.1217L29.1314 69.8656L39.449 64.7619L38.0463 56.6359L20.6048 46.8483L20.6468 50.6559L16.8392 50.6979L17.7425 55.2183L13.2222 56.1217Z" fill="#F2C400" stroke="#F2C400" stroke-linejoin="round"/>
<path d="M73.9599 48.357L55.5841 58.5711L56.8294 70.0144L64.9423 71.491L80.1298 58.4779L76.5398 57.2082L77.8095 53.6182L73.2541 52.9124L73.9599 48.357Z" fill="#F2C400" stroke="#F2C400" stroke-linejoin="round"/>
<path d="M24.5 42.5L33.5 61.5L45 61L47 53L35 37L33.5 40.5L30 39L29 43.5L24.5 42.5Z" fill="#F2BE01" stroke="#F2BE01" stroke-linejoin="round"/>
<path d="M29 63L32.5 66.5L28 67L29.5 70L27.5 70.5L29.5 72.5L28.5 74L33 75L29.5 78L31.5 79L30.5 81H32.5V83L35 82.5L34.5 85H37L37.5 87L39 86.5L40 88.5L42.5 85.5L43.5 89.5L44.5 88L46 90L47.5 88L49.5 89.5L50.5 86L52 89.5L53 87.5L55 88.5L55.5 86H58L56.5 82L59.5 83.5V81.5L62 81V79L63.5 77.5L60.5 75L64.5 74.5L63 72L64.5 71.5L63 70L64.5 68L59.5 67L63 63H61L62 60.5H59.5V58.5L58 59L58.5 56.5H56V54.5L53.5 55L53 53.5L50.5 56.5L49.5 52L48.5 53.5L47 52L45.5 53.5L43 52V56L40 52.5V54.5L37.5 54V56H35.5L36.5 59.5L33 58V60H30.5L31.5 63H29Z" fill="#FFE000" stroke="#FFE000" stroke-linejoin="round"/>
<circle cx="46.5" cy="70.5" r="7.5" fill="#E39100"/>
<path d="M110.361 99.3522L111.359 78.3521L100.976 73.3823L95.4474 79.5004L98.5077 99.2648L101.478 96.8823L103.861 99.8527L106.86 96.3524L110.361 99.3522Z" fill="#E7C803" stroke="#E7C803" stroke-linejoin="round"/>
<path d="M81.4485 91.6196L89.9155 72.3761L101.425 72.5555L103.647 80.4966L92.0977 96.8248L90.5007 93.368L87.0439 94.9649L85.9189 90.4945L81.4485 91.6196Z" fill="#E9A600" stroke="#E9A600" stroke-linejoin="round"/>
<path d="M115.911 98.1973L104.779 80.3629L111.409 70.9534L119.222 73.5896L126.21 92.3292L122.454 91.7019L121.827 95.4578L117.499 93.8697L115.911 98.1973Z" fill="#F2BE01" stroke="#F2BE01" stroke-linejoin="round"/>
<path d="M79.1281 88.9535L97.4747 78.687L96.1967 67.2473L88.0796 65.7939L72.9294 78.8503L76.523 80.1097L75.2636 83.7033L79.821 84.3961L79.1281 88.9535Z" fill="#F2C400" stroke="#F2C400" stroke-linejoin="round"/>
<path d="M138.956 78.5705L123.403 64.4248L112.959 69.2634L114.154 77.4226L131.339 87.6524L131.395 83.8449L135.202 83.9002L134.414 79.3582L138.956 78.5705Z" fill="#F2C400" stroke="#F2C400" stroke-linejoin="round"/>
<path d="M68.7319 70.2766L89.6658 72.2184L95.0975 62.0696L89.2342 56.2711L69.3521 58.4396L71.5987 61.5141L68.5242 63.7607L71.886 66.9148L68.7319 70.2766Z" fill="#E9A600" stroke="#E9A600" stroke-linejoin="round"/>
<path d="M140.734 70.1612L119.8 72.1029L114.369 61.9541L120.232 56.1557L140.114 58.3241L137.867 61.3987L140.942 63.6453L137.58 66.7994L140.734 70.1612Z" fill="#E9A600" stroke="#E9A600" stroke-linejoin="round"/>
<path d="M116.644 31.0872L105.971 49.2004L112.839 58.4373L120.583 55.6021L127.089 36.6899L123.351 37.4131L122.627 33.6745L118.342 35.3727L116.644 31.0872Z" fill="#E9A600" stroke="#E9A600" stroke-linejoin="round"/>
<path d="M99.4577 29.2256L98.4527 51.5667L109.317 56.5719L115.087 49.924L111.85 29.0037L108.749 31.6143L106.253 28.5212L103.123 32.3202L99.4577 29.2256Z" fill="#E7C803" stroke="#E7C803" stroke-linejoin="round"/>
<path d="M71.1412 50.1217L87.0504 63.8656L97.368 58.7619L95.9653 50.6359L78.5238 40.8483L78.5658 44.6559L74.7582 44.6979L75.6616 49.2183L71.1412 50.1217Z" fill="#F2C400" stroke="#F2C400" stroke-linejoin="round"/>
<path d="M131.879 42.357L113.503 52.5711L114.748 64.0144L122.861 65.491L138.049 52.4779L134.459 51.2082L135.729 47.6182L131.173 46.9124L131.879 42.357Z" fill="#F2C400" stroke="#F2C400" stroke-linejoin="round"/>
<path d="M82.419 36.5L91.419 55.5L102.919 55L104.919 47L92.919 31L91.419 34.5L87.919 33L86.919 37.5L82.419 36.5Z" fill="#F2BE01" stroke="#F2BE01" stroke-linejoin="round"/>
<path d="M86.919 57L90.419 60.5L85.919 61L87.419 64L85.419 64.5L87.419 66.5L86.419 68L90.919 69L87.419 72L89.419 73L88.419 75H90.419V77L92.919 76.5L92.419 79H94.919L95.419 81L96.919 80.5L97.919 82.5L100.419 79.5L101.419 83.5L102.419 82L103.919 84L105.419 82L107.419 83.5L108.419 80L109.919 83.5L110.919 81.5L112.919 82.5L113.419 80H115.919L114.419 76L117.419 77.5V75.5L119.919 75V73L121.419 71.5L118.419 69L122.419 68.5L120.919 66L122.419 65.5L120.919 64L122.419 62L117.419 61L120.919 57H118.919L119.919 54.5H117.419V52.5L115.919 53L116.419 50.5H113.919V48.5L111.419 49L110.919 47.5L108.419 50.5L107.419 46L106.419 47.5L104.919 46L103.419 47.5L100.919 46V50L97.919 46.5V48.5L95.419 48V50H93.419L94.419 53.5L90.919 52V54H88.419L89.419 57H86.919Z" fill="#FFE000" stroke="#FFE000" stroke-linejoin="round"/>
<circle cx="104.419" cy="64.5" r="7.5" fill="#E39100"/>
</svg>
