<svg width="142" height="303" viewBox="0 0 142 303" fill="none" xmlns="http://www.w3.org/2000/svg">
<path d="M56.0001 126.5L47.0001 83.5" stroke="#019A61" stroke-width="7" stroke-linejoin="round"/>
<path d="M87 123L82 72" stroke="#019A61" stroke-width="7" stroke-linejoin="round"/>
<path d="M28.7599 107.281L77.8626 297.415C78.8372 299.765 81.6748 302.075 83.9452 297.375L124.344 104.838L28.7599 107.281Z" fill="#75A74B"/>
<line x1="34.1099" y1="126.476" x2="103.834" y2="203.447" stroke="#DFDB29"/>
<line x1="41.3801" y1="157.005" x2="100.004" y2="221.061" stroke="#DFDB29"/>
<line x1="49.482" y1="188.681" x2="96.0174" y2="239.666" stroke="#DFDB29"/>
<line x1="58.5759" y1="220.52" x2="92.0357" y2="258.275" stroke="#DFDB29"/>
<path d="M93.1644 8.30253C85.4549 3.9949 77.422 7.20328 74.3693 9.34593C67.7164 13.3281 75.5092 26.8705 81.6971 35.1609L83.0352 37.9863L89.1712 38.8391C93.7146 30.4551 100.874 12.6102 93.1644 8.30253Z" fill="#FF3D63"/>
<path d="M83.8006 37.8597C83.1396 37.0501 82.4296 36.1423 81.6971 35.1609M81.6971 35.1609C75.5092 26.8705 67.7164 13.3281 74.3693 9.34593C77.422 7.20328 85.4549 3.9949 93.1644 8.30253C100.874 12.6102 93.7146 30.4551 89.1712 38.8391L83.0352 37.9863L81.6971 35.1609Z" stroke="#FF3D63" stroke-width="3.87847" stroke-linejoin="round"/>
<path d="M50.3785 43.1263C47.7485 34.6957 52.5404 27.4944 55.2651 24.9476C60.5303 19.2559 72.1806 29.6672 79.0211 37.4278L81.5109 39.3185L81.0836 45.4986C71.9444 48.2206 53.0085 51.5569 50.3785 43.1263Z" fill="#FF3D63"/>
<path d="M81.2297 40.0414C80.5733 39.2281 79.8309 38.3465 79.0211 37.4278M79.0211 37.4278C72.1806 29.6672 60.5303 19.2559 55.2651 24.9476C52.5404 27.4944 47.7485 34.6957 50.3785 43.1263C53.0085 51.5569 71.9444 48.2206 81.0836 45.4986L81.5109 39.3185L79.0211 37.4278Z" stroke="#FF3D63" stroke-width="3.87847" stroke-linejoin="round"/>
<path d="M122.371 36.4129C122.696 27.5876 116.182 21.8964 112.885 20.1539C106.31 16.0436 97.801 29.1476 93.237 38.4316L91.3307 40.9094L93.3651 46.7608C102.898 46.9887 122.046 45.2383 122.371 36.4129Z" fill="#FF3D63"/>
<path d="M91.7918 41.5331C92.2118 40.5761 92.6968 39.5306 93.237 38.4316M93.237 38.4316C97.801 29.1476 106.31 16.0436 112.885 20.1539C116.182 21.8964 122.696 27.5876 122.371 36.4129C122.046 45.2383 102.898 46.9887 93.3651 46.7608L91.3307 40.9094L93.237 38.4316Z" stroke="#FF3D63" stroke-width="3.87847" stroke-linejoin="round"/>
<path d="M106.071 72.9829C114.524 70.4276 117.795 62.4197 118.373 58.7352C120.128 51.1829 104.973 47.3846 94.7102 46.0792L91.748 45.0798L86.8729 48.9022C89.7498 57.9938 97.6171 75.5382 106.071 72.9829Z" fill="#FF3D63"/>
<path d="M91.3075 45.7183C92.349 45.805 93.4953 45.9246 94.7102 46.0792M94.7102 46.0792C104.973 47.3846 120.128 51.1829 118.373 58.7352C117.795 62.4197 114.524 70.4276 106.071 72.9829C97.6171 75.5382 89.7498 57.9938 86.8729 48.9022L91.748 45.0798L94.7102 46.0792Z" stroke="#FF3D63" stroke-width="3.87847" stroke-linejoin="round"/>
<path d="M76.1477 76.9471C67.3215 77.2484 61.6478 70.7193 59.9143 67.417C55.8218 60.8315 68.9486 52.3574 78.2448 47.8185L80.7277 45.9189L86.5736 47.969C86.7759 57.5028 84.9739 76.6457 76.1477 76.9471Z" fill="#FF3D63"/>
<path d="M81.3503 46.3817C80.3921 46.799 79.3453 47.2812 78.2448 47.8185M78.2448 47.8185C68.9486 52.3574 55.8218 60.8315 59.9143 67.417C61.6478 70.7193 67.3215 77.2484 76.1477 76.9471C84.9739 76.6457 86.7759 57.5028 86.5736 47.969L80.7277 45.9189L78.2448 47.8185Z" stroke="#FF3D63" stroke-width="3.87847" stroke-linejoin="round"/>
<path d="M83.2333 25.4263C83.3177 24.9646 83.934 24.8627 84.1625 25.2726L90.1515 36.0193C90.2543 36.2038 90.4618 36.3038 90.6701 36.2694L103.826 34.0945C104.316 34.0135 104.612 34.6187 104.247 34.9556L94.8388 43.6441C94.6691 43.8008 94.6287 44.0534 94.7412 44.2552L100.659 54.874C100.893 55.2937 100.458 55.7698 100.019 55.5747L88.0982 50.2803C87.9157 50.1993 87.7024 50.2345 87.5557 50.37L77.9733 59.2193C77.6203 59.5454 77.0554 59.2346 77.1418 58.7618L79.327 46.8035C79.3685 46.5762 79.249 46.3501 79.0379 46.2563L67.334 41.0581C66.8801 40.8565 66.9655 40.1883 67.4554 40.1073L80.6113 37.9323C80.8196 37.8979 80.9839 37.7364 81.0218 37.5287L83.2333 25.4263Z" fill="#E9ECF1"/>
<circle cx="86.5038" cy="42.9164" r="4.16935" transform="rotate(-9.38731 86.5038 42.9164)" fill="#FFE000"/>
<path d="M102.164 59.3025C94.4549 54.9949 86.422 58.2033 83.3693 60.3459C76.7164 64.3281 84.5092 77.8705 90.6971 86.1609L92.0352 88.9863L98.1712 89.8391C102.715 81.4551 109.874 63.6102 102.164 59.3025Z" fill="#FC6C8D"/>
<path d="M92.8006 88.8597C92.1396 88.0501 91.4296 87.1423 90.6971 86.1609M90.6971 86.1609C84.5092 77.8705 76.7164 64.3281 83.3693 60.3459C86.422 58.2033 94.4549 54.9949 102.164 59.3025C109.874 63.6102 102.715 81.4551 98.1712 89.8391L92.0352 88.9863L90.6971 86.1609Z" stroke="#FC6C8D" stroke-width="3.87847" stroke-linejoin="round"/>
<path d="M59.3785 94.1263C56.7485 85.6957 61.5404 78.4944 64.2651 75.9476C69.5303 70.2559 81.1806 80.6672 88.0211 88.4278L90.5109 90.3185L90.0836 96.4986C80.9444 99.2206 62.0085 102.557 59.3785 94.1263Z" fill="#FC6C8D"/>
<path d="M90.2297 91.0414C89.5733 90.2281 88.8309 89.3465 88.0211 88.4278M88.0211 88.4278C81.1806 80.6672 69.5303 70.2559 64.2651 75.9476C61.5404 78.4944 56.7485 85.6957 59.3785 94.1263C62.0085 102.557 80.9444 99.2206 90.0836 96.4986L90.5109 90.3185L88.0211 88.4278Z" stroke="#FC6C8D" stroke-width="3.87847" stroke-linejoin="round"/>
<path d="M131.371 87.4129C131.696 78.5876 125.182 72.8964 121.885 71.1539C115.31 67.0436 106.801 80.1476 102.237 89.4316L100.331 91.9094L102.365 97.7608C111.898 97.9887 131.046 96.2383 131.371 87.4129Z" fill="#FC6C8D"/>
<path d="M100.792 92.5331C101.212 91.5761 101.697 90.5306 102.237 89.4316M102.237 89.4316C106.801 80.1476 115.31 67.0436 121.885 71.1539C125.182 72.8964 131.696 78.5876 131.371 87.4129C131.046 96.2383 111.898 97.9887 102.365 97.7608L100.331 91.9094L102.237 89.4316Z" stroke="#FC6C8D" stroke-width="3.87847" stroke-linejoin="round"/>
<path d="M115.071 123.983C123.524 121.428 126.795 113.42 127.373 109.735C129.128 102.183 113.973 98.3846 103.71 97.0792L100.748 96.0798L95.8729 99.9022C98.7498 108.994 106.617 126.538 115.071 123.983Z" fill="#FC6C8D"/>
<path d="M100.307 96.7183C101.349 96.805 102.495 96.9246 103.71 97.0792M103.71 97.0792C113.973 98.3846 129.128 102.183 127.373 109.735C126.795 113.42 123.524 121.428 115.071 123.983C106.617 126.538 98.7498 108.994 95.8729 99.9022L100.748 96.0798L103.71 97.0792Z" stroke="#FC6C8D" stroke-width="3.87847" stroke-linejoin="round"/>
<path d="M85.1477 127.947C76.3215 128.248 70.6478 121.719 68.9143 118.417C64.8218 111.831 77.9486 103.357 87.2448 98.8185L89.7277 96.9189L95.5736 98.969C95.7759 108.503 93.9739 127.646 85.1477 127.947Z" fill="#FC6C8D"/>
<path d="M90.3503 97.3817C89.3921 97.799 88.3453 98.2812 87.2448 98.8185M87.2448 98.8185C77.9486 103.357 64.8218 111.831 68.9143 118.417C70.6478 121.719 76.3215 128.248 85.1477 127.947C93.9739 127.646 95.7759 108.503 95.5736 98.969L89.7277 96.9189L87.2448 98.8185Z" stroke="#FC6C8D" stroke-width="3.87847" stroke-linejoin="round"/>
<path d="M92.2333 76.4263C92.3177 75.9646 92.934 75.8627 93.1625 76.2726L99.1515 87.0193C99.2543 87.2038 99.4618 87.3038 99.6701 87.2694L112.826 85.0945C113.316 85.0135 113.612 85.6187 113.247 85.9556L103.839 94.6441C103.669 94.8008 103.629 95.0534 103.741 95.2552L109.659 105.874C109.893 106.294 109.458 106.77 109.019 106.575L97.0982 101.28C96.9157 101.199 96.7024 101.235 96.5557 101.37L86.9733 110.219C86.6203 110.545 86.0554 110.235 86.1418 109.762L88.327 97.8035C88.3685 97.5762 88.249 97.3501 88.0379 97.2563L76.334 92.0581C75.8801 91.8565 75.9655 91.1883 76.4554 91.1073L89.6113 88.9323C89.8196 88.8979 89.9839 88.7364 90.0218 88.5287L92.2333 76.4263Z" fill="#E9ECF1"/>
<circle cx="95.5038" cy="93.9164" r="4.16935" transform="rotate(-9.38731 95.5038 93.9164)" fill="#FFE000"/>
<path d="M54.1645 39.3025C46.4549 34.9949 38.4221 38.2033 35.3693 40.3459C28.7165 44.3281 36.5092 57.8705 42.6971 66.1609L44.0353 68.9863L50.1712 69.8391C54.7146 61.4551 61.874 43.6102 54.1645 39.3025Z" fill="#E195B9"/>
<path d="M44.8006 68.8597C44.1397 68.0501 43.4297 67.1423 42.6971 66.1609M42.6971 66.1609C36.5092 57.8705 28.7165 44.3281 35.3693 40.3459C38.4221 38.2033 46.4549 34.9949 54.1645 39.3025C61.874 43.6102 54.7146 61.4551 50.1712 69.8391L44.0353 68.9863L42.6971 66.1609Z" stroke="#E195B9" stroke-width="3.87847" stroke-linejoin="round"/>
<path d="M11.3786 74.1263C8.7486 65.6957 13.5404 58.4944 16.2651 55.9476C21.5304 50.2559 33.1807 60.6672 40.0212 68.4278L42.511 70.3185L42.0837 76.4986C32.9445 79.2206 14.0086 82.5569 11.3786 74.1263Z" fill="#E195B9"/>
<path d="M42.2298 71.0414C41.5734 70.2281 40.831 69.3465 40.0212 68.4278M40.0212 68.4278C33.1807 60.6672 21.5304 50.2559 16.2651 55.9476C13.5404 58.4944 8.7486 65.6957 11.3786 74.1263C14.0086 82.5569 32.9445 79.2206 42.0837 76.4986L42.511 70.3185L40.0212 68.4278Z" stroke="#E195B9" stroke-width="3.87847" stroke-linejoin="round"/>
<path d="M83.3712 67.4129C83.6963 58.5876 77.1825 52.8964 73.8849 51.1539C67.3104 47.0436 58.801 60.1476 54.2371 69.4316L52.3308 71.9094L54.3651 77.7608C63.8983 77.9887 83.046 76.2383 83.3712 67.4129Z" fill="#E195B9"/>
<path d="M52.7919 72.5331C53.2118 71.5761 53.6968 70.5306 54.2371 69.4316M54.2371 69.4316C58.801 60.1476 67.3104 47.0436 73.8849 51.1539C77.1825 52.8964 83.6963 58.5876 83.3712 67.4129C83.046 76.2383 63.8983 77.9887 54.3651 77.7608L52.3308 71.9094L54.2371 69.4316Z" stroke="#E195B9" stroke-width="3.87847" stroke-linejoin="round"/>
<path d="M67.0707 103.983C75.5242 101.428 78.7946 93.4197 79.3731 89.7352C81.1284 82.1829 65.9726 78.3846 55.7102 77.0792L52.748 76.0798L47.873 79.9022C50.7499 88.9938 58.6171 106.538 67.0707 103.983Z" fill="#E195B9"/>
<path d="M52.3075 76.7183C53.3491 76.805 54.4954 76.9246 55.7102 77.0792M55.7102 77.0792C65.9726 78.3846 81.1284 82.1829 79.3731 89.7352C78.7946 93.4197 75.5242 101.428 67.0707 103.983C58.6171 106.538 50.7499 88.9938 47.873 79.9022L52.748 76.0798L55.7102 77.0792Z" stroke="#E195B9" stroke-width="3.87847" stroke-linejoin="round"/>
<path d="M37.1477 107.947C28.3215 108.248 22.6478 101.719 20.9143 98.417C16.8218 91.8315 29.9486 83.3574 39.2448 78.8185L41.7277 76.9189L47.5736 78.969C47.7759 88.5028 45.9739 107.646 37.1477 107.947Z" fill="#E195B9"/>
<path d="M42.3503 77.3817C41.3921 77.799 40.3453 78.2812 39.2448 78.8185M39.2448 78.8185C29.9486 83.3574 16.8218 91.8315 20.9143 98.417C22.6478 101.719 28.3215 108.248 37.1477 107.947C45.9739 107.646 47.7759 88.5028 47.5736 78.969L41.7277 76.9189L39.2448 78.8185Z" stroke="#E195B9" stroke-width="3.87847" stroke-linejoin="round"/>
<path d="M44.2334 56.4263C44.3178 55.9646 44.9341 55.8627 45.1626 56.2726L51.1515 67.0193C51.2543 67.2038 51.4618 67.3038 51.6702 67.2694L64.826 65.0945C65.3159 65.0135 65.6118 65.6187 65.247 65.9556L55.8388 74.6441C55.6691 74.8008 55.6288 75.0534 55.7412 75.2552L61.6589 85.874C61.8929 86.2937 61.458 86.7698 61.0188 86.5747L49.0982 81.2803C48.9157 81.1993 48.7025 81.2345 48.5557 81.37L38.9734 90.2193C38.6204 90.5454 38.0554 90.2346 38.1418 89.7618L40.327 77.8035C40.3686 77.5762 40.2491 77.3501 40.038 77.2563L28.334 72.0581C27.8802 71.8565 27.9655 71.1883 28.4555 71.1073L41.6113 68.9323C41.8196 68.8979 41.9839 68.7364 42.0219 68.5287L44.2334 56.4263Z" fill="#E9ECF1"/>
<circle cx="47.5039" cy="73.9164" r="4.16935" transform="rotate(-9.38731 47.5039 73.9164)" fill="#FFE000"/>
</svg>
