<svg width="152" height="317" viewBox="0 0 152 317" fill="none" xmlns="http://www.w3.org/2000/svg">
<path d="M28.7598 121.281L77.8625 311.415C78.8371 313.765 81.6747 316.075 83.9451 311.375L124.344 118.838L28.7598 121.281Z" fill="#75A74B"/>
<line x1="34.1099" y1="140.476" x2="103.834" y2="217.447" stroke="#DFDB29"/>
<line x1="41.38" y1="171.005" x2="100.004" y2="235.061" stroke="#DFDB29"/>
<line x1="49.482" y1="202.681" x2="96.0174" y2="253.666" stroke="#DFDB29"/>
<line x1="58.5758" y1="234.52" x2="92.0357" y2="272.275" stroke="#DFDB29"/>
<path d="M9.64778 64.3728C7.24778 76.7728 26.6478 75.2062 36.6478 72.8728C38.6478 72.4517 40.4811 67.0307 41.1478 64.3728C39.5478 28.3728 27.1478 31.7062 21.1478 37.8728C-2.85222 37.0728 3.48111 55.2062 9.64778 64.3728Z" fill="#D3B9DA" stroke="#D3B9DA" stroke-width="7" stroke-linejoin="round"/>
<path d="M112.047 41.2658C99.8201 38.099 100.177 57.5589 101.884 67.6847C102.179 69.707 107.476 71.8741 110.087 72.7048C146.117 73.3475 143.561 60.7642 137.78 54.3922C140.072 30.4884 121.579 35.6814 112.047 41.2658Z" fill="#D3B9DA" stroke="#D3B9DA" stroke-width="7" stroke-linejoin="round"/>
<path d="M48.1581 126.711C20.1689 143.068 22.259 119.896 26.8027 106.264C5.71995 104.447 9.05651 89.901 12.6915 82.1767C18.1439 72.1806 29.226 75.2159 36.3445 79.4567C56.3367 58.0104 68.3018 74.4586 71.7853 85.3635C80.8727 84.273 87.0824 91.2703 89.0513 94.9052C94.8672 106.174 82.6901 115.352 75.8746 118.532C77.2377 123.076 77.5103 133.254 67.6959 137.616C57.8816 141.978 50.5814 132.164 48.1581 126.711Z" fill="#FF3D63" stroke="#FF3D63" stroke-width="6.36117" stroke-linejoin="round"/>
<path d="M31.9869 97.2013C33.1435 99.8194 42.0909 101.9 46.42 102.614C36.2608 111.304 37.2106 112.902 38.9554 112.614C38.1596 115.058 54.2547 101.979 49.0081 106.937C44.8108 110.903 43.7951 115.267 43.8118 116.953C46.0192 117.621 50.0744 110.49 51.8261 106.841C52.632 115.322 55.7414 118.526 57.1953 119.068C59.6839 119.657 57.4475 110.914 56.0183 106.468C61.1328 111.718 64.4139 112.83 65.4151 112.73C66.5201 112.106 60.1807 106.045 56.8729 103.093C58.6605 104.158 65.4763 104.085 68.6607 103.916C68.1366 102.217 61.6009 100.356 58.3985 99.6384C59.9062 99.8241 64.8649 98.1472 67.1557 97.2855C66.7287 95.6118 58.4114 96.5725 54.3061 97.2622C56.8031 95.5327 58.2001 87.8154 58.5865 84.1729C57.0856 83.7241 50.744 99.3737 51.3988 97.2086C51.9227 95.4766 49.7164 88.0523 48.5477 84.5567C45.6781 85.9381 46.5925 95.0694 47.4084 99.4623C42.3112 96.4369 35.0035 96.6944 31.9869 97.2013Z" fill="white" stroke="white" stroke-width="1.1831" stroke-linejoin="round"/>
<ellipse cx="2.73207" cy="2.95357" rx="2.73207" ry="2.95357" transform="matrix(0.870724 -0.491772 0.513672 0.857987 47.8083 101.331)" fill="#FF3D63"/>
<path d="M106.158 118.711C78.169 135.068 80.2591 111.895 84.8028 98.2643C63.7201 96.4469 67.0566 81.9009 70.6916 74.1766C76.144 64.1805 87.2261 67.2158 94.3446 71.4566C114.337 50.0103 126.302 66.4585 129.785 77.3634C138.873 76.2729 145.082 83.2702 147.051 86.9051C152.867 98.1735 140.69 107.352 133.875 110.532C135.238 115.076 135.51 125.254 125.696 129.616C115.882 133.978 108.581 124.163 106.158 118.711Z" fill="#ED5E86" stroke="#ED5E86" stroke-width="6.36117" stroke-linejoin="round"/>
<path d="M89.987 89.2013C91.1437 91.8194 100.091 93.9004 104.42 94.6137C94.261 103.304 95.2108 104.902 96.9556 104.614C96.1598 107.058 112.255 93.9787 107.008 98.9366C102.811 102.903 101.795 107.267 101.812 108.953C104.019 109.621 108.075 102.49 109.826 98.8411C110.632 107.322 113.742 110.526 115.195 111.068C117.684 111.657 115.448 102.914 114.018 98.4681C119.133 103.718 122.414 104.83 123.415 104.73C124.52 104.106 118.181 98.0455 114.873 95.0931C116.661 96.158 123.476 96.0852 126.661 95.9157C126.137 94.217 119.601 92.3563 116.399 91.6384C117.906 91.8241 122.865 90.1472 125.156 89.2855C124.729 87.6118 116.412 88.5725 112.306 89.2622C114.803 87.5327 116.2 79.8154 116.587 76.1729C115.086 75.7241 108.744 91.3737 109.399 89.2086C109.923 87.4766 107.717 80.0523 106.548 76.5567C103.678 77.9381 104.593 87.0694 105.409 91.4623C100.311 88.4369 93.0037 88.6944 89.987 89.2013Z" fill="white" stroke="white" stroke-width="1.1831" stroke-linejoin="round"/>
<ellipse cx="2.73207" cy="2.95357" rx="2.73207" ry="2.95357" transform="matrix(0.870724 -0.491772 0.513672 0.857987 105.808 93.3311)" fill="#FF3D63"/>
<path d="M83.0451 71.5808C69.1424 100.867 57.8096 80.5464 53.8811 66.7255C35.4409 77.1055 29.9996 63.2091 28.6492 54.7798C27.5199 43.4494 38.3851 39.7114 46.6555 39.2029C51.0843 10.2198 70.2378 17.0642 79.261 24.1093C86.1533 18.0871 95.2264 20.3679 98.9014 22.261C110.056 28.2918 105.17 42.7363 101.332 49.2047C105.019 52.1899 110.98 60.444 105.33 69.5783C99.6813 78.7126 88.1197 74.7193 83.0451 71.5808Z" fill="#D9224E" stroke="#D9224E" stroke-width="6.36117" stroke-linejoin="round"/>
<path d="M53.056 56.317C55.4869 57.8279 64.0509 54.5046 68.029 52.6541C64.5341 65.5579 66.2192 66.3426 67.4986 65.122C68.2187 67.5896 74.1432 47.7142 72.6032 54.7666C71.3712 60.4085 72.9913 64.5856 73.9553 65.9689C76.1554 65.277 75.4866 57.101 74.8772 53.0996C80.3226 59.6514 84.6968 60.5459 86.2033 60.1741C88.5911 59.2583 81.8161 53.2957 78.1301 50.4289C85.3137 51.8832 88.6509 50.9531 89.4216 50.3062C89.9827 49.1679 81.3304 47.734 76.934 47.1593C79.0109 47.0315 84.6002 43.1302 87.1352 41.1956C85.745 40.0877 79.2974 42.234 76.2474 43.4456C77.5975 42.7493 80.7487 38.5696 82.1555 36.5667C80.8595 35.4247 74.5302 40.9058 71.5276 43.789C72.6156 40.9532 69.4205 33.7908 67.687 30.5641C66.1941 31.0392 69.775 47.5408 69.0958 45.3832C68.5524 43.6572 62.5458 38.7676 59.6105 36.5386C58.0184 39.2969 63.9198 46.3247 67.0696 49.4938C61.1538 49.8671 55.2623 54.1982 53.056 56.317Z" fill="white" stroke="white" stroke-width="1.1831" stroke-linejoin="round"/>
<ellipse cx="2.73207" cy="2.95357" rx="2.73207" ry="2.95357" transform="matrix(0.442138 -0.896947 0.90786 0.419275 68.4529 50.8121)" fill="#FF3D63"/>
</svg>
