<svg width="846" height="376" viewBox="0 0 846 376" fill="none" xmlns="http://www.w3.org/2000/svg">
<path d="M181.704 356.156C185.186 364.278 194.099 368.251 188.008 370.862C181.917 373.473 174.156 369.006 170.675 360.884C167.193 352.763 169.309 344.062 175.4 341.451C181.491 338.84 178.222 348.035 181.704 356.156Z" fill="#B37AA6"/>
<path d="M829.185 3.8509C838.008 3.34819 844.783 -3.67602 845.16 2.94067C845.537 9.55735 838.69 15.3288 829.868 15.8315C821.046 16.3342 813.588 11.3778 813.211 4.76113C812.834 -1.85555 820.363 4.35361 829.185 3.8509Z" fill="#D08DAE"/>
<path d="M19.9937 255.503C26.9281 260.98 36.6574 260.219 32.5495 265.42C28.4417 270.621 19.4902 270.397 12.5558 264.92C5.62142 259.443 3.33008 250.786 7.43794 245.586C11.5458 240.385 13.0594 250.026 19.9937 255.503Z" fill="#DAA1E1"/>
<path d="M403.704 307.708C396.626 314.173 384.361 312.268 390.888 319.414C397.415 326.559 408.444 327.111 415.522 320.646C422.6 314.181 423.047 303.147 416.52 296.002C409.993 288.856 410.782 301.243 403.704 307.708Z" fill="#DAA1E1"/>
<path d="M499.572 72.5412C496.088 60.3803 503.734 47.522 493.263 50.5219C482.793 53.5218 477.129 65.812 480.613 77.9729C484.097 90.1338 495.41 97.5603 505.88 94.5604C516.351 91.5606 503.056 84.7021 499.572 72.5412Z" fill="#B469C2"/>
</svg>
