<svg width="291" height="115" viewBox="0 0 291 115" fill="none" xmlns="http://www.w3.org/2000/svg">
<path d="M190 16.9999C184.4 12.5999 129 57.5771 115.5 79.0771L108 113.577L289 74.577C244.2 57.377 213.333 27.9998 190 16.9999Z" fill="#5B4E86" stroke="#5B4E86"/>
<path d="M71 1.50006C65.4 -2.89994 22 44.0744 8.5 65.5744L1 100.074L182 61.0743C137.2 43.8743 94.3333 12.5 71 1.50006Z" fill="#463C6B" stroke="#463C6B"/>
<path d="M67 24.0953C36.6114 43.9011 55.6717 17.168 69 1C61.003 2.2126 37.1572 27.2649 26.4946 39.8962L12 48.9907L22.4961 98L175.439 60.6115C210.259 55.7274 258.608 48.8897 173.44 60.6115C88.2714 72.3333 67.1666 41.1054 67 24.0953Z" fill="#352854" stroke="#352854"/>
<path d="M189 16C180.667 24.1666 167.9 39.3 183.5 34.5C184.306 40.7177 191.301 50.5151 211.112 54H246C231.409 55.8548 219.977 55.5594 211.112 54H139L147.5 44.5C159.667 34.8333 185 15.6 189 16Z" fill="#352854"/>
<path d="M189 16C180.667 24.1666 167.9 39.3 183.5 34.5C184.667 43.5 198.8 60 246 54H139L147.5 44.5C159.667 34.8333 185 15.6 189 16Z" stroke="#352854"/>
</svg>
