<svg width="197" height="132" viewBox="0 0 197 132" fill="none" xmlns="http://www.w3.org/2000/svg">
<path d="M93.7635 42.5428C74.2139 41.2791 24.4422 63.4285 2 74.6611L144.632 131L196 117.837L188.519 2C184.363 9.54694 171.762 29.169 154.607 47.2816C137.451 65.3943 112.216 46.7551 93.7635 42.5428Z" fill="#514460" stroke="#514460"/>
<path d="M92.5 43.0001C64.5 54.3335 44.5 62 83 55C78.6682 60.3943 77.7192 67.8088 83.9623 72.2665L131 71C104.704 78.3383 90.45 76.8989 83.9623 72.2665L1 74.5002L11.5 69.5002C37 58.5002 88.9 37.8001 92.5 43.0001Z" fill="#3D334A"/>
<path d="M92.5 43.0001C64.5 54.3335 44.5 62 83 55C74.1667 66 79.4 85.4 131 71L1 74.5002L11.5 69.5002C37 58.5002 88.9 37.8001 92.5 43.0001Z" stroke="#3D334A"/>
</svg>
