<svg width="1600" height="473" viewBox="0 0 1600 473" fill="none" xmlns="http://www.w3.org/2000/svg">
<g filter="url(#filter0_d_518_369)">
<path d="M681.884 116.605C661.828 100.847 463.419 261.928 415.07 338.928L388.209 462.486L1036.44 322.811C875.995 261.211 765.45 156 681.884 116.605Z" fill="#5B4E86" stroke="#5B4E86"/>
<path d="M255.698 61.0929C235.642 45.3347 80.2093 213.568 31.8605 290.568L5 414.126L653.233 274.452C492.786 212.852 339.264 100.488 255.698 61.0929Z" fill="#463C6B" stroke="#463C6B"/>
<path d="M1228.99 147.2C1158.98 142.674 980.723 222 900.349 262.228L1411.17 464L1595.14 416.857L1568.35 2C1553.46 29.0286 1508.34 99.3029 1446.89 164.171C1385.45 229.04 1295.08 162.286 1228.99 147.2Z" fill="#514460" stroke="#514460"/>
<path d="M241.372 142.016C132.538 212.948 200.801 117.207 248.535 59.3027C219.894 63.6455 134.493 153.368 96.3062 198.605L44.3954 231.176L81.986 406.698L629.734 272.795C754.44 255.303 927.595 230.815 622.574 272.795C317.554 314.775 241.969 202.936 241.372 142.016Z" fill="#352854" stroke="#352854"/>
<path d="M678.302 113.024C648.458 142.272 602.735 196.47 658.605 179.28C661.491 201.548 686.542 236.636 757.495 249.117H882.442C830.184 255.76 789.244 254.702 757.495 249.117H499.233L529.674 215.094C573.248 180.474 663.977 111.591 678.302 113.024Z" fill="#352854"/>
<path d="M678.302 113.024C648.458 142.272 602.735 196.47 658.605 179.28C662.783 211.512 713.4 270.605 882.442 249.117H499.233L529.674 215.094C573.248 180.474 663.977 111.591 678.302 113.024Z" stroke="#352854"/>
<path d="M1224.47 148.837C1124.19 189.427 1052.56 216.884 1190.44 191.814C1174.93 211.133 1171.53 237.687 1193.89 253.652L1362.35 249.116C1268.17 275.398 1217.12 270.242 1193.89 253.652L896.767 261.652L934.372 243.745C1025.7 204.35 1211.57 130.214 1224.47 148.837Z" fill="#3D334A"/>
<path d="M1224.47 148.837C1124.19 189.427 1052.56 216.884 1190.44 191.814C1158.81 231.209 1177.55 300.688 1362.35 249.116L896.767 261.652L934.372 243.745C1025.7 204.35 1211.57 130.214 1224.47 148.837Z" stroke="#3D334A"/>
</g>
<defs>
<filter id="filter0_d_518_369" x="0.346519" y="0.257812" width="1599.32" height="472.267" filterUnits="userSpaceOnUse" color-interpolation-filters="sRGB">
<feFlood flood-opacity="0" result="BackgroundImageFix"/>
<feColorMatrix in="SourceAlpha" type="matrix" values="0 0 0 0 0 0 0 0 0 0 0 0 0 0 0 0 0 0 127 0" result="hardAlpha"/>
<feOffset dy="4"/>
<feGaussianBlur stdDeviation="2"/>
<feComposite in2="hardAlpha" operator="out"/>
<feColorMatrix type="matrix" values="0 0 0 0 0 0 0 0 0 0 0 0 0 0 0 0 0 0 0.25 0"/>
<feBlend mode="normal" in2="BackgroundImageFix" result="effect1_dropShadow_518_369"/>
<feBlend mode="normal" in="SourceGraphic" in2="effect1_dropShadow_518_369" result="shape"/>
</filter>
</defs>
</svg>
