<svg width="464" height="120" viewBox="0 0 464 120" fill="none" xmlns="http://www.w3.org/2000/svg">
<path d="M51 29.4292C42.3737 17.2123 92.1863 11.8416 187.5 11.8418C285.5 11.842 349.419 32.0455 428 17.724C469.932 17.7241 385.529 11.3986 446.962 48.6913C501.518 81.8099 291.83 39.309 278.287 48.6913L0 39.7446L51 29.4292Z" fill="url(#paint0_linear_519_404)"/>
<path d="M18.4465 42.6201C9.82935 19.168 20.0132 -4.59023 114.339 18.5642C212.336 42.6201 238.502 46.0564 317 18.5642C353 15.1414 386.352 -1.00117 447.719 70.5874C502.218 134.163 372.25 59.4499 358.721 77.4604L18.4465 63.7143V42.6201Z" fill="url(#paint1_linear_519_404)"/>
<path d="M21.514 55.0839C12.8877 42.867 110.105 51.6943 204.703 35.7291C302.081 19.2946 367.872 69.4054 446.453 55.0839C488.385 55.0839 393.529 38.3742 454.962 75.6668C509.518 108.785 299.83 66.2846 286.287 75.6668L8 66.7201L21.514 55.0839Z" fill="url(#paint2_linear_519_404)"/>
<path d="M20.7332 66.2189C11.7868 41.3011 41.5223 25.5479 140 45.6289C187 55.2129 248 62.3973 305 51.7898C356.5 42.2059 496.019 24.2505 423.5 83.7189C414.595 91.0215 437.545 100.864 423.5 120L16 112.03L20.7332 66.2189Z" fill="#7B68AF"/>
<defs>
<linearGradient id="paint0_linear_519_404" x1="228" y1="11.8418" x2="228" y2="61.5353" gradientUnits="userSpaceOnUse">
<stop stop-color="#7B68AF"/>
<stop offset="1" stop-color="#2A1A57"/>
</linearGradient>
<linearGradient id="paint1_linear_519_404" x1="238.5" y1="9.10413" x2="238.5" y2="96.7263" gradientUnits="userSpaceOnUse">
<stop stop-color="#7B68AF"/>
<stop offset="1" stop-color="#2A1A57"/>
</linearGradient>
<linearGradient id="paint2_linear_519_404" x1="236" y1="32.3779" x2="236" y2="88.5109" gradientUnits="userSpaceOnUse">
<stop stop-color="#7B68AF"/>
<stop offset="1" stop-color="#2A1A57"/>
</linearGradient>
</defs>
</svg>
