<svg width="23" height="23" viewBox="0 0 23 23" fill="none" xmlns="http://www.w3.org/2000/svg">
<circle cx="11.4525" cy="11.4525" r="10.7263" fill="#FDCECE"/>
<path d="M11.4525 4.7486C10.1266 4.7486 8.83047 5.14177 7.72802 5.87841C6.62556 6.61504 5.76631 7.66205 5.2589 8.88703C4.7515 10.112 4.61874 11.4599 4.87741 12.7604C5.13608 14.0608 5.77457 15.2553 6.71213 16.1929C7.64969 17.1304 8.84421 17.7689 10.1446 18.0276C11.4451 18.2863 12.793 18.1535 14.018 17.6461C15.243 17.1387 16.29 16.2794 17.0266 15.177C17.7632 14.0745 18.1564 12.7784 18.1564 11.4525C18.153 9.67556 17.4456 7.97238 16.1891 6.71589C14.9326 5.4594 13.2294 4.752 11.4525 4.7486V4.7486ZM13.8827 13.1478C13.9795 13.2456 14.0338 13.3776 14.0338 13.5152C14.0338 13.6529 13.9795 13.7849 13.8827 13.8827C13.7841 13.978 13.6524 14.0313 13.5152 14.0313C13.3781 14.0313 13.2464 13.978 13.1478 13.8827L11.4525 12.1809L9.75719 13.8827C9.65862 13.978 9.52688 14.0313 9.38977 14.0313C9.25266 14.0313 9.12091 13.978 9.02234 13.8827C8.92551 13.7849 8.87118 13.6529 8.87118 13.5152C8.87118 13.3776 8.92551 13.2456 9.02234 13.1478L10.7241 11.4525L9.02234 9.75719C8.94011 9.65699 8.89808 9.52979 8.90444 9.40033C8.9108 9.27087 8.96509 9.1484 9.05674 9.05674C9.1484 8.96508 9.27087 8.9108 9.40033 8.90444C9.5298 8.89808 9.657 8.94011 9.75719 9.02234L11.4525 10.7241L13.1478 9.02234C13.248 8.94011 13.3752 8.89808 13.5047 8.90444C13.6341 8.9108 13.7566 8.96508 13.8483 9.05674C13.9399 9.1484 13.9942 9.27087 14.0006 9.40033C14.0069 9.52979 13.9649 9.65699 13.8827 9.75719L12.1809 11.4525L13.8827 13.1478Z" fill="#F30C0C"/>
</svg>
