<svg width="996" height="620" viewBox="0 0 996 620" fill="none" xmlns="http://www.w3.org/2000/svg">
<path d="M184.355 397.19C42.9297 407.959 2.86941 486.536 0.517458 524.478C52.392 490.551 134.726 528.577 169.409 551.83C209.477 576.227 269.939 602.12 296.253 611.421C380.708 641.531 448.631 575.674 482.37 547.742C514.724 520.957 592.386 523.015 628.65 528.248C687.923 541.712 764.309 572.825 814.08 569.705C846.997 568.525 944.853 540.077 995.878 522.215L977.165 -0.000170929C904.49 69.9467 775.764 47.3017 717.142 39.6037C525.461 20.1054 424.203 175.7 397.534 255.935C367.248 365.338 242.796 395.69 184.355 397.19Z" fill="url(#paint0_linear_476_879)"/>
<defs>
<linearGradient id="paint0_linear_476_879" x1="501.426" y1="613.43" x2="480.083" y2="17.8122" gradientUnits="userSpaceOnUse">
<stop stop-color="#EFC2AF"/>
<stop offset="0.293" stop-color="#E59BB2"/>
<stop offset="1" stop-color="#7E569D"/>
</linearGradient>
</defs>
</svg>
