<svg width="93" height="139" viewBox="0 0 93 139" fill="none" xmlns="http://www.w3.org/2000/svg">
<path d="M92.2556 31.8171C93.0283 41.2083 89.0502 58.32 66.9568 51.6368L92.2556 31.8171Z" fill="#019A61" stroke="#019A61" stroke-width="1.25263"/>
<path d="M91.1789 30.8804C81.0702 30.7931 61.7886 34.7765 65.5321 51.4088L91.1789 30.8804Z" fill="#50715B" stroke="#50715B" stroke-width="1.25263"/>
<path d="M3.40529 43.7065C12.5836 38.9317 31.6791 34.5084 34.634 55.0145L3.40529 43.7065Z" fill="#50715B" stroke="#50715B" stroke-width="1.25263"/>
<path d="M2.9303 44.9768C7.29311 53.043 19.8211 66.5897 35.0305 56.2472L2.9303 44.9768Z" fill="#019A61" stroke="#019A61" stroke-width="1.25263"/>
<path d="M33.568 19.1572C35.1474 29.1751 39.3889 51.1463 40.4605 51.3291" stroke="#FF3D63" stroke-width="1.25263"/>
<path d="M24.8759 41.2419C26.6827 44.8627 30.5643 52.1499 31.6359 52.3327" stroke="#FF3D63" stroke-width="1.25263"/>
<path d="M57.5591 46.7215C59.3233 43.552 62.6364 37.025 61.7753 36.2724" stroke="#FF3D63" stroke-width="1.25263"/>
<path d="M71.4596 44.265C72.5192 40.9565 74.5075 34.142 73.9839 33.3529" stroke="#FF3D63" stroke-width="1.25263"/>
<path d="M62.9143 47.1606C65.01 36.811 68.9383 15.4933 67.8856 13.0192" stroke="#FF3D63" stroke-width="1.25263"/>
<path d="M52.234 51.0181C52.603 40.9665 53.2853 20.2606 53.0628 17.8502" stroke="#FF3D63" stroke-width="1.25263"/>
<ellipse cx="3.73985" cy="6.41006" rx="3.73985" ry="6.41006" transform="matrix(0.992779 -0.119957 0.150772 0.988569 27.8724 7.01562)" fill="#D9224E"/>
<ellipse cx="3.73814" cy="6.41378" rx="3.73814" ry="6.41378" transform="matrix(0.992615 0.121304 -0.155756 0.987796 66.3091 1.18506)" fill="#D9224E"/>
<path d="M25.3157 46.5065L52.1617 136.415C52.6903 137.525 54.2159 138.61 55.4171 136.375L76.4656 45.0279L25.3157 46.5065Z" fill="#75A74B"/>
<line y1="-0.208771" x2="53.142" y2="-0.208771" transform="matrix(0.706523 0.681746 -0.790807 0.642277 28.0393 55.7415)" stroke="#DFDB29" stroke-width="0.417542"/>
<line y1="-0.208771" x2="44.4566" y2="-0.208771" transform="matrix(0.71005 0.678162 -0.787566 0.646215 32.0219 70.1809)" stroke="#DFDB29" stroke-width="0.417542"/>
<line y1="-0.208771" x2="35.3361" y2="-0.208771" transform="matrix(0.709129 0.679101 -0.788416 0.645186 36.4518 85.1594)" stroke="#DFDB29" stroke-width="0.417542"/>
<line y1="-0.208771" x2="25.7828" y2="-0.208771" transform="matrix(0.698928 0.689347 -0.797638 0.633837 41.4114 100.21)" stroke="#DFDB29" stroke-width="0.417542"/>
<path d="M53.2195 19.4799C53.6695 22.8768 56.7968 29.6181 65.7063 29.4081C64.6303 25.4018 60.6265 17.8072 53.2195 19.4799Z" fill="#FF3D63" stroke="#FF3D63" stroke-width="0.417542"/>
<path d="M53.4006 19.3301C57.2213 18.8103 64.7304 15.8023 64.2014 7.92821C59.7131 9.02365 51.2694 12.8377 53.4006 19.3301Z" fill="#FF3D63" stroke="#FF3D63" stroke-width="0.417542"/>
<path d="M53.2927 19.41C53.0409 22.8239 50.31 29.7067 41.4008 29.9271C42.2423 25.8745 45.7989 18.0973 53.2927 19.41Z" fill="#FF3D63" stroke="#FF3D63" stroke-width="0.417542"/>
<path d="M52.9842 18.9536C49.1211 18.8619 41.2541 16.7103 40.6908 8.83821C45.2959 9.42709 54.2018 12.2746 52.9842 18.9536Z" fill="#FF3D63" stroke="#FF3D63" stroke-width="0.417542"/>
<line y1="-0.208771" x2="14.078" y2="-0.208771" transform="matrix(0.828633 0.622056 -0.668659 0.69751 47.1871 15.2136)" stroke="#D9224E" stroke-width="0.417542"/>
<line y1="-0.208771" x2="14.0925" y2="-0.208771" transform="matrix(-0.662852 0.702344 -0.833645 -0.616083 57.4415 14.3911)" stroke="#D9224E" stroke-width="0.417542"/>
<path d="M21.7612 26.8603C22.2111 30.2572 25.3385 36.9985 34.2479 36.7885C33.1719 32.7821 29.1681 25.1876 21.7612 26.8603Z" fill="#FF3D63" stroke="#FF3D63" stroke-width="0.417542"/>
<path d="M21.9426 26.711C25.7633 26.1912 33.2724 23.1831 32.7434 15.3091C28.2551 16.4045 19.8114 20.2185 21.9426 26.711Z" fill="#FF3D63" stroke="#FF3D63" stroke-width="0.417542"/>
<path d="M21.8349 26.7909C21.5831 30.2048 18.8522 37.0876 9.94303 37.308C10.7846 33.2553 14.3411 25.4782 21.8349 26.7909Z" fill="#FF3D63" stroke="#FF3D63" stroke-width="0.417542"/>
<path d="M21.5261 26.3348C17.663 26.243 9.796 24.0915 9.23266 16.2193C13.8378 16.8082 22.7437 19.6557 21.5261 26.3348Z" fill="#FF3D63" stroke="#FF3D63" stroke-width="0.417542"/>
<line y1="-0.208771" x2="14.078" y2="-0.208771" transform="matrix(0.828633 0.622056 -0.668659 0.69751 15.729 22.5947)" stroke="#D9224E" stroke-width="0.417542"/>
<line y1="-0.208771" x2="14.0925" y2="-0.208771" transform="matrix(-0.662852 0.702344 -0.833645 -0.616083 25.9838 21.772)" stroke="#D9224E" stroke-width="0.417542"/>
<path d="M24.3236 40.4401C26.6509 43.297 33.2834 47.9762 41.1946 43.8381C37.9582 40.7104 30.0531 35.6519 24.3236 40.4401Z" fill="#FC6C8D" stroke="#FC6C8D" stroke-width="0.417542"/>
<path d="M24.4027 40.224C27.5521 38.0628 32.6181 32.0278 27.6866 25.1776C24.2612 28.1527 18.8087 35.3271 24.4027 40.224Z" fill="#FC6C8D" stroke="#FC6C8D" stroke-width="0.417542"/>
<path d="M24.3506 40.3436C26.0551 43.5269 27.4877 50.9302 19.5827 55.0775C18.0483 51.0581 16.8539 42.4842 24.3506 40.3436Z" fill="#FC6C8D" stroke="#FC6C8D" stroke-width="0.417542"/>
<path d="M23.814 40.0697C20.2804 41.6994 11.9727 43.2507 7.01134 36.4175C11.495 34.9061 21.1327 33.5205 23.814 40.0697Z" fill="#FC6C8D" stroke="#FC6C8D" stroke-width="0.417542"/>
<line y1="-0.208771" x2="15.0854" y2="-0.208771" transform="matrix(1.02538 0.179546 -0.209763 0.931626 16.4736 39.2737)" stroke="#DD2A54" stroke-width="0.417542"/>
<line y1="-0.208771" x2="13.9859" y2="-0.208771" transform="matrix(-0.201596 0.932804 -1.02715 -0.172577 25.2509 33.989)" stroke="#DD2A54" stroke-width="0.417542"/>
<path d="M62.8431 35.791C61.6146 39.036 61.1965 46.3187 69.3519 49.4889C70.3078 45.456 70.3443 37.0704 62.8431 35.791Z" fill="#FC6C8D" stroke="#FC6C8D" stroke-width="0.417542"/>
<path d="M63.0786 35.7241C66.7828 36.6945 75.0192 36.8034 78.3315 29.4753C73.7467 28.7742 64.2774 29.0424 63.0786 35.7241Z" fill="#FC6C8D" stroke="#FC6C8D" stroke-width="0.417542"/>
<path d="M62.9436 35.7556C61.0725 38.7513 55.2903 43.9525 47.1302 40.7917C49.8419 37.4402 56.801 31.7407 62.9436 35.7556Z" fill="#FC6C8D" stroke="#FC6C8D" stroke-width="0.417542"/>
<path d="M62.8839 35.2267C59.4357 33.6866 53.3596 28.7716 56.6399 21.4322C60.5196 23.7023 67.1998 29.6393 62.8839 35.2267Z" fill="#FC6C8D" stroke="#FC6C8D" stroke-width="0.417542"/>
<line y1="-0.208771" x2="13.8582" y2="-0.208771" transform="matrix(0.456771 0.889584 -0.927394 0.374086 59.4431 29.6536)" stroke="#DD2A54" stroke-width="0.417542"/>
<line y1="-0.208771" x2="14.2848" y2="-0.208771" transform="matrix(-0.92472 0.380649 -0.464159 -0.885752 69.1095 32.7771)" stroke="#DD2A54" stroke-width="0.417542"/>
<path d="M42.8118 39.0869C43.512 42.4501 47.1313 48.9951 56.0071 48.2695C54.637 44.3345 50.0799 36.9889 42.8118 39.0869Z" fill="#FF3D63" stroke="#FF3D63" stroke-width="0.417542"/>
<path d="M42.9816 38.9268C46.7561 38.1869 54.0274 34.7506 52.9174 26.9248C48.5192 28.2778 40.3747 32.5724 42.9816 38.9268Z" fill="#FF3D63" stroke="#FF3D63" stroke-width="0.417542"/>
<path d="M42.8802 39.0126C42.8813 42.4334 40.6648 49.4589 31.7902 50.1949C32.3303 46.1026 35.3046 38.1369 42.8802 39.0126Z" fill="#FF3D63" stroke="#FF3D63" stroke-width="0.417542"/>
<path d="M42.5381 38.5752C38.6761 38.7075 30.6661 37.0165 29.5219 29.1946C34.1611 29.5154 43.2593 31.8407 42.5381 38.5752Z" fill="#FF3D63" stroke="#FF3D63" stroke-width="0.417542"/>
<line y1="-0.208771" x2="14.1416" y2="-0.208771" transform="matrix(0.869007 0.570084 -0.618252 0.737696 36.4766 35.1794)" stroke="#D9224E" stroke-width="0.417542"/>
<line y1="-0.208771" x2="14.0358" y2="-0.208771" transform="matrix(-0.612033 0.742151 -0.873618 -0.563909 46.6493 33.7651)" stroke="#D9224E" stroke-width="0.417542"/>
</svg>
