<svg width="1778" height="291" viewBox="0 0 1778 291" fill="none" xmlns="http://www.w3.org/2000/svg">
<path d="M286.783 72.4312C255.021 54.4846 438.431 46.595 789.378 46.5952C1150.22 46.5955 1385.57 76.2746 1674.9 55.2362C1829.3 55.2363 1518.53 45.9442 1744.72 100.727C1945.6 149.379 1173.52 86.9447 1123.66 100.727L99 87.5846L286.783 72.4312Z" fill="url(#paint0_linear_518_368)"/>
<path d="M84.0054 95.5559C52.2865 61.2967 89.772 26.5903 436.974 60.4146C797.694 95.5559 894.007 100.576 1182.95 60.4146C1315.46 55.4146 1438.23 31.8332 1664.12 136.411C1864.72 229.284 1386.32 120.141 1336.52 146.451L84.0054 126.371V95.5559Z" fill="url(#paint1_linear_518_368)"/>
<path d="M49.7586 107.764C17.9966 89.9178 375.954 102.813 724.265 79.4906C1082.81 55.4829 1325.05 128.686 1614.39 107.764C1768.78 107.765 1419.53 83.3546 1645.72 137.832C1846.6 186.213 1074.52 124.127 1024.66 137.832L0 124.763L49.7586 107.764Z" fill="url(#paint2_linear_518_368)"/>
<path d="M92.4191 128.031C59.4948 91.6306 168.927 68.618 531.342 97.9526C704.311 111.953 928.802 122.448 1138.57 106.953C1328.1 92.9523 1841.56 66.7227 1574.67 153.595C1541.9 164.263 1626.36 178.641 1574.67 206.595L75 194.953L92.4191 128.031Z" fill="url(#paint3_linear_518_368)"/>
<defs>
<linearGradient id="paint0_linear_518_368" x1="938.5" y1="46.5952" x2="938.5" y2="119.595" gradientUnits="userSpaceOnUse">
<stop stop-color="#7B68AF"/>
<stop offset="1" stop-color="#2A1A57"/>
</linearGradient>
<linearGradient id="paint1_linear_518_368" x1="894" y1="46.5952" x2="894" y2="174.595" gradientUnits="userSpaceOnUse">
<stop stop-color="#7B68AF"/>
<stop offset="1" stop-color="#2A1A57"/>
</linearGradient>
<linearGradient id="paint2_linear_518_368" x1="839.5" y1="74.5952" x2="839.5" y2="156.595" gradientUnits="userSpaceOnUse">
<stop stop-color="#7B68AF"/>
<stop offset="1" stop-color="#2A1A57"/>
</linearGradient>
<linearGradient id="paint3_linear_518_368" x1="862.5" y1="84.5952" x2="862.5" y2="206.595" gradientUnits="userSpaceOnUse">
<stop stop-color="#7B68AF"/>
<stop offset="1" stop-color="#2A1A57"/>
</linearGradient>
</defs>
</svg>
